<?xml version="1.0" encoding="utf-8"?>
<svg version="1.1" width="4000px" height="4000px" style="shape-rendering:geometricPrecision; text-rendering:geometricPrecision; image-rendering:optimizeQuality; fill-rule:evenodd; clip-rule:evenodd" xmlns="http://www.w3.org/2000/svg">
  <g>
    <path style="opacity: 0.997; fill: rgb(30, 58, 138);" d="M 2324.5,166.5 C 2329.02,166.742 2333.68,166.908 2338.5,167C 2353.83,170.667 2369.17,174.333 2384.5,178C 2426.05,198.108 2467.38,218.775 2508.5,240C 2525.57,248.199 2542.9,255.866 2560.5,263C 2571.94,271.136 2583.1,279.636 2594,288.5C 2603.34,300.515 2611.67,313.182 2619,326.5C 2623.67,344.5 2628.33,362.5 2633,380.5C 2649.61,423.659 2666.61,466.659 2684,509.5C 2694.44,533.043 2706.44,555.71 2720,577.5C 2735.51,608.331 2750.84,639.331 2766,670.5C 2775.96,692.079 2785.62,713.746 2795,735.5C 2807.82,769.449 2818.49,804.115 2827,839.5C 2827.41,839.957 2827.91,840.291 2828.5,840.5C 2846.1,834.941 2863.93,831.941 2882,831.5C 2903.19,834.338 2924.02,838.838 2944.5,845C 2952.66,851.245 2960.99,857.245 2969.5,863C 2977.05,872.217 2984.22,881.717 2991,891.5C 2993.52,897.376 2995.85,903.376 2998,909.5C 3002.6,927.039 3006.43,944.539 3009.5,962C 3010.56,966.598 3012.23,970.932 3014.5,975C 3020.15,974.713 3025.65,973.546 3031,971.5C 3051.15,976.245 3071.31,981.078 3091.5,986C 3115.19,993.762 3136.03,1006.26 3154,1023.5C 3172.43,1047.36 3189.09,1072.36 3204,1098.5C 3208.73,1116.27 3213.23,1134.1 3217.5,1152C 3229.65,1158.79 3241.31,1166.46 3252.5,1175C 3263.44,1187.93 3273.6,1201.43 3283,1215.5C 3288.29,1232.65 3292.96,1249.99 3297,1267.5C 3472.75,1518.15 3555.75,1797.15 3546,2104.5C 3544.01,2165.37 3537.35,2225.71 3526,2285.5C 3522.53,2294.31 3516.36,2300.47 3507.5,2304C 3503.88,2305.16 3500.21,2306.16 3496.5,2307C 3147.5,2307.17 2798.5,2307.67 2449.5,2308.5C 2440.7,2333.23 2432.7,2358.23 2425.5,2383.5C 2429.82,2401.8 2433.99,2420.13 2438,2438.5C 2439.85,2445.41 2440.52,2452.41 2440,2459.5C 2436.16,2475.88 2432.16,2492.21 2428,2508.5C 2420.49,2519.52 2412.49,2530.19 2404,2540.5C 2404.02,2543.24 2404.69,2545.91 2406,2548.5C 2408.81,2554.79 2412.15,2560.79 2416,2566.5C 2421.06,2570.95 2426.56,2574.78 2432.5,2578C 2763.5,2578.33 3094.5,2578.67 3425.5,2579C 3428.91,2580.08 3431.41,2582.24 3433,2585.5C 3433.81,2590.26 3433.48,2594.92 3432,2599.5C 3319.9,2847.59 3149.74,3045.76 2921.5,3194C 2767.21,3291.89 2599.71,3356.39 2419,3387.5C 2413.57,3394.61 2407.73,3401.44 2401.5,3408C 2368.59,3432.28 2334.26,3454.28 2298.5,3474C 2285.59,3476.79 2273.59,3481.79 2262.5,3489C 2252.94,3493.61 2243.27,3497.95 2233.5,3502C 2221,3505.96 2208.33,3509.29 2195.5,3512C 2173.95,3519.28 2153.62,3528.94 2134.5,3541C 2124.17,3548.67 2113.83,3556.33 2103.5,3564C 2072.16,3580.22 2040.16,3594.88 2007.5,3608C 1993.94,3612.07 1980.28,3615.74 1966.5,3619C 1962.46,3623.55 1958.29,3628.05 1954,3632.5C 1933.92,3662.58 1911.59,3690.91 1887,3717.5C 1861.72,3741.78 1835.56,3764.95 1808.5,3787C 1792.76,3804.85 1774.76,3819.85 1754.5,3832C 1738.21,3836.02 1721.88,3839.86 1705.5,3843.5C 1689.13,3839.82 1672.8,3835.99 1656.5,3832C 1645.03,3826.62 1633.36,3821.62 1621.5,3817C 1613.34,3810.75 1605.01,3804.75 1596.5,3799C 1589.3,3790.1 1582.47,3780.93 1576,3771.5C 1572.32,3755.79 1568.49,3740.12 1564.5,3724.5C 1568.49,3708.88 1572.32,3693.21 1576,3677.5C 1583.59,3665.99 1591.42,3654.66 1599.5,3643.5C 1594.47,3636.3 1589.64,3628.97 1585,3621.5C 1579.77,3602.06 1574.93,3582.56 1570.5,3563C 1571.28,3550.88 1572.28,3538.54 1573.5,3526C 1572.57,3514.92 1570.4,3504.08 1567,3493.5C 1560.73,3480.62 1554.73,3467.62 1549,3454.5C 1541.74,3427.47 1536.07,3400.14 1532,3372.5C 1521.74,3351.64 1511.74,3330.64 1502,3309.5C 1500.58,3301.81 1498.25,3294.48 1495,3287.5C 1491.33,3272.17 1487.67,3256.83 1484,3241.5C 1483.28,3229.09 1481.78,3216.59 1479.5,3204C 1479.29,3192.8 1477.95,3181.64 1475.5,3170.5C 1472.95,3137.93 1469.29,3105.1 1464.5,3072C 1464.59,3070.89 1464.92,3069.89 1465.5,3069C 1463.74,3059.05 1462.08,3049.05 1460.5,3039C 1460.91,3037.86 1461.24,3036.69 1461.5,3035.5C 1458.02,3007.68 1454.52,2979.68 1451,2951.5C 1443.77,2936.71 1435.77,2922.38 1427,2908.5C 1418.18,2888.55 1411.51,2867.88 1407,2846.5C 1403.67,2837.17 1400.33,2827.83 1397,2818.5C 1396.67,2919.17 1396.33,3019.83 1396,3120.5C 1394.08,3131.45 1387.92,3135.28 1377.5,3132C 1358.11,3118.64 1339.45,3104.3 1321.5,3089C 1161.79,2953.74 1039.29,2790.57 954,2599.5C 949.027,2589.74 951.527,2582.91 961.5,2579C 1062.17,2578.5 1162.83,2578.33 1263.5,2578.5C 1257.69,2554.26 1252.36,2529.93 1247.5,2505.5C 1248.37,2502.53 1248.7,2499.7 1248.5,2497C 1244.39,2478.62 1235.22,2463.12 1221,2450.5C 1214,2440.83 1207,2431.17 1200,2421.5C 1196.82,2416.48 1194.16,2411.14 1192,2405.5C 1186.59,2383.68 1181.42,2361.85 1176.5,2340C 1176.83,2329.18 1178.17,2318.34 1180.5,2307.5C 1078.11,2307.99 975.777,2307.49 873.5,2306C 867.25,2302.75 862.75,2297.92 860,2291.5C 808.96,1993.44 850.627,1709.11 985,1438.5C 1080.1,1254.03 1210.27,1098.53 1375.5,972C 1382.14,968.186 1388.31,968.686 1394,973.5C 1394.67,974.833 1395.33,976.167 1396,977.5C 1396.33,1228.5 1396.67,1479.5 1397,1730.5C 1471.81,1702.4 1546.64,1674.4 1621.5,1646.5C 1621.83,1645.33 1622.17,1644.17 1622.5,1643C 1621.09,1634.61 1619.42,1626.28 1617.5,1618C 1618.67,1605.31 1618.84,1592.14 1618,1578.5C 1621.67,1563.17 1625.33,1547.83 1629,1532.5C 1635.78,1522.72 1642.95,1513.22 1650.5,1504C 1670.84,1487.33 1693.84,1475.66 1719.5,1469C 1726.33,1459.5 1733.17,1450 1740,1440.5C 1753.97,1429.45 1768.47,1419.28 1783.5,1410C 1789.08,1408.35 1794.75,1407.19 1800.5,1406.5C 1801.08,1403.33 1801.75,1400.16 1802.5,1397C 1800.9,1389.11 1799.07,1381.28 1797,1373.5C 1796.33,1366.83 1796.33,1360.17 1797,1353.5C 1800,1340.5 1803,1327.5 1806,1314.5C 1808,1304.84 1811,1295.5 1815,1286.5C 1824.71,1272.91 1834.54,1259.41 1844.5,1246C 1843.54,1237.21 1843.21,1228.54 1843.5,1220C 1848.07,1201.55 1852.57,1183.05 1857,1164.5C 1858.59,1161.83 1859.75,1158.99 1860.5,1156C 1849.97,1126.75 1838.47,1097.92 1826,1069.5C 1820.35,1047.58 1815.02,1025.58 1810,1003.5C 1809.24,995.785 1809.57,988.119 1811,980.5C 1815,963.833 1819,947.167 1823,930.5C 1826.35,921.159 1831.35,912.826 1838,905.5C 1840.7,902.001 1841.04,898.334 1839,894.5C 1831.15,884.973 1824.48,874.64 1819,863.5C 1814.84,847.209 1810.84,830.875 1807,814.5C 1805.41,750.248 1813.41,686.914 1831,624.5C 1847.82,571.373 1863.82,518.04 1879,464.5C 1886.52,432.592 1890.52,400.259 1891,367.5C 1895,350.833 1899,334.167 1903,317.5C 1909.8,307.401 1916.97,297.567 1924.5,288C 1935.83,280 1947.17,272 1958.5,264C 1990.43,248.079 2024.1,237.246 2059.5,231.5C 2075.87,235.175 2092.2,239.009 2108.5,243C 2116.66,249.245 2124.99,255.245 2133.5,261C 2137.79,266.41 2141.95,271.91 2146,277.5C 2169.36,256.899 2191.52,235.066 2212.5,212C 2225.14,202.009 2238.48,193.009 2252.5,185C 2276.54,178.492 2300.54,172.325 2324.5,166.5 Z"/>
  </g>
  <g>
    <path style="opacity:0.999" fill="#010101" d="M 2321.5,205.5 C 2327.84,205.334 2334.18,205.5 2340.5,206C 2349.17,208 2357.83,210 2366.5,212C 2408.51,232.793 2450.51,253.793 2492.5,275C 2509.6,283.216 2526.93,290.883 2544.5,298C 2551.94,303.137 2559.1,308.637 2566,314.5C 2573.52,323.698 2579.85,333.698 2585,344.5C 2589.67,362.516 2594.34,380.516 2599,398.5C 2615.61,441.659 2632.61,484.659 2650,527.5C 2657.25,541.669 2664.25,556.003 2671,570.5C 2681.89,588.833 2692.23,607.499 2702,626.5C 2722.71,668.306 2742.38,710.639 2761,753.5C 2775.27,791.322 2786.94,829.989 2796,869.5C 2797.47,875.425 2800.31,880.425 2804.5,884.5C 2822.06,879.887 2839.73,875.721 2857.5,872C 2868.81,870.747 2880.15,870.414 2891.5,871C 2902.6,872.857 2913.6,875.191 2924.5,878C 2943.56,888.243 2956.39,903.743 2963,924.5C 2969.46,946.085 2973.8,968.085 2976,990.5C 2985.19,999.015 2992.86,1008.68 2999,1019.5C 3000.25,1018.79 3001.42,1017.96 3002.5,1017C 3011.68,1014.91 3020.85,1012.75 3030,1010.5C 3055.57,1014.14 3080.07,1021.31 3103.5,1032C 3110.17,1037 3116.83,1042 3123.5,1047C 3140.99,1068.83 3156.49,1091.99 3170,1116.5C 3174.59,1131.21 3177.76,1146.21 3179.5,1161.5C 3179.05,1166.86 3178.38,1172.19 3177.5,1177.5C 3177.83,1178.83 3178.17,1180.17 3178.5,1181.5C 3196.47,1184.53 3212.47,1191.7 3226.5,1203C 3233.36,1211.23 3239.86,1219.73 3246,1228.5C 3253.65,1246.41 3258.81,1265.08 3261.5,1284.5C 3259.97,1295.28 3257.8,1305.95 3255,1316.5C 3250.96,1322.75 3246.79,1328.92 3242.5,1335C 3236.66,1338.75 3230.99,1342.75 3225.5,1347C 3212.8,1352.12 3199.8,1356.46 3186.5,1360C 3181.06,1361.89 3176.06,1364.55 3171.5,1368C 3167.3,1372.9 3163.47,1378.07 3160,1383.5C 3140.19,1403.4 3120.19,1423.06 3100,1442.5C 3098.25,1445.67 3096.25,1448.67 3094,1451.5C 3077.49,1467.67 3059.49,1482.01 3040,1494.5C 3033.42,1504.67 3027.08,1515 3021,1525.5C 3016.3,1545.36 3010.96,1565.02 3005,1584.5C 3001.04,1589.58 2997.21,1594.74 2993.5,1600C 2988.32,1603.42 2983.32,1607.09 2978.5,1611C 2967.91,1613.81 2957.24,1616.31 2946.5,1618.5C 2936.12,1616.19 2925.79,1613.69 2915.5,1611C 2908.39,1607.45 2901.06,1604.45 2893.5,1602C 2887.58,1597.46 2881.41,1593.29 2875,1589.5C 2871.99,1591.09 2868.82,1592.26 2865.5,1593C 2858.99,1619.85 2848.49,1645.02 2834,1668.5C 2826,1680.5 2818,1692.5 2810,1704.5C 2795.34,1720.91 2778.18,1734.08 2758.5,1744C 2753.67,1745.96 2748.67,1747.12 2743.5,1747.5C 2742.7,1752.06 2741.2,1756.39 2739,1760.5C 2732.49,1769.68 2725.99,1778.84 2719.5,1788C 2721.25,1795.15 2722.91,1802.31 2724.5,1809.5C 2721.41,1828.19 2716.91,1846.52 2711,1864.5C 2709.3,1875.95 2706.97,1887.29 2704,1898.5C 2700.51,1904.81 2696.51,1910.81 2692,1916.5C 2677.34,1928.58 2661.17,1938.25 2643.5,1945.5C 2641.29,1953.66 2638.45,1961.66 2635,1969.5C 2627.27,1981.23 2618.1,1991.73 2607.5,2001C 2588.81,2016.02 2568.47,2028.52 2546.5,2038.5C 2546.77,2046.11 2546.27,2053.77 2545,2061.5C 2543,2070.17 2541,2078.83 2539,2087.5C 2534.78,2094.77 2529.95,2101.61 2524.5,2108C 2519.17,2111.67 2513.83,2115.33 2508.5,2119C 2498.87,2121.32 2489.2,2123.49 2479.5,2125.5C 2469.8,2123.49 2460.13,2121.32 2450.5,2119C 2446.09,2115.38 2441.59,2111.88 2437,2108.5C 2433.17,2113 2429.33,2117.5 2425.5,2122C 2430.05,2126.21 2434.88,2130.05 2440,2133.5C 2443.42,2138.68 2447.09,2143.68 2451,2148.5C 2454.61,2159.62 2456.95,2170.95 2458,2182.5C 2455.93,2193.47 2452.93,2204.13 2449,2214.5C 2445.67,2219.17 2442.33,2223.83 2439,2228.5C 2434.7,2231.8 2430.7,2235.46 2427,2239.5C 2424.46,2254.67 2421.12,2269.67 2417,2284.5C 2406.3,2316.93 2395.8,2349.43 2385.5,2382C 2394.26,2407.87 2399.43,2434.37 2401,2461.5C 2398.8,2471.97 2396.13,2482.31 2393,2492.5C 2385.17,2505.66 2375.17,2517 2363,2526.5C 2362.5,2527.5 2362,2528.5 2361.5,2529.5C 2364,2539.49 2366.5,2549.49 2369,2559.5C 2373.47,2569.78 2378.47,2579.78 2384,2589.5C 2397.05,2601.22 2411.22,2611.38 2426.5,2620C 2432.76,2624.71 2438.92,2629.55 2445,2634.5C 2448.75,2640.34 2452.75,2646.01 2457,2651.5C 2458.87,2659.86 2460.87,2668.2 2463,2676.5C 2463.67,2680.5 2463.67,2684.5 2463,2688.5C 2457.82,2712.55 2450.49,2735.89 2441,2758.5C 2433.62,2769.42 2426.12,2780.25 2418.5,2791C 2438.66,2791.96 2458.33,2795.62 2477.5,2802C 2506.6,2819.09 2533.43,2839.26 2558,2862.5C 2567.08,2873.59 2575.41,2885.25 2583,2897.5C 2591.2,2905.36 2599.03,2913.53 2606.5,2922C 2614,2928.83 2621.5,2935.67 2629,2942.5C 2637.94,2940.03 2647.11,2938.86 2656.5,2939C 2666.68,2933.41 2676.35,2927.08 2685.5,2920C 2674.45,2916.49 2663.45,2912.82 2652.5,2909C 2646.75,2904.71 2640.92,2900.54 2635,2896.5C 2630.27,2890.1 2625.94,2883.44 2622,2876.5C 2619.75,2867.02 2617.59,2857.52 2615.5,2848C 2617.75,2838.85 2619.91,2829.68 2622,2820.5C 2626.25,2815.01 2630.25,2809.34 2634,2803.5C 2639.92,2799.46 2645.75,2795.29 2651.5,2791C 2687.91,2781.28 2723.58,2783.61 2758.5,2798C 2767.79,2804.57 2776.62,2811.73 2785,2819.5C 2792.39,2829.22 2799.39,2839.22 2806,2849.5C 2831.69,2871.52 2851.69,2897.85 2866,2928.5C 2868.33,2938.17 2870.67,2947.83 2873,2957.5C 2873.91,2975.4 2872.24,2993.07 2868,3010.5C 2865.14,3023.62 2861.8,3036.62 2858,3049.5C 2854.33,3054.5 2850.67,3059.5 2847,3064.5C 2841.83,3068.33 2836.67,3072.17 2831.5,3076C 2795.21,3090.48 2758.55,3103.82 2721.5,3116C 2714.68,3121.63 2708.51,3127.8 2703,3134.5C 2696.93,3143.9 2690.1,3152.74 2682.5,3161C 2660.09,3178.03 2634.92,3188.87 2607,3193.5C 2604.29,3192.99 2601.63,3192.32 2599,3191.5C 2593.66,3200.19 2587.49,3208.36 2580.5,3216C 2570.15,3224.18 2558.82,3230.85 2546.5,3236C 2543.3,3239.57 2540.47,3243.4 2538,3247.5C 2524.51,3257.16 2510.35,3265.66 2495.5,3273C 2495,3273.5 2494.5,3274 2494,3274.5C 2492.65,3281.25 2490.98,3287.91 2489,3294.5C 2484.5,3300.33 2480,3306.17 2475.5,3312C 2466.44,3318.72 2457.11,3325.06 2447.5,3331C 2437.56,3333.48 2427.56,3335.65 2417.5,3337.5C 2413.49,3336.66 2409.49,3336.16 2405.5,3336C 2397.74,3352.19 2387.74,3366.86 2375.5,3380C 2345.59,3402.79 2313.92,3422.79 2280.5,3440C 2268.42,3442.72 2257.09,3447.39 2246.5,3454C 2236.28,3458.95 2225.94,3463.61 2215.5,3468C 2202.97,3471.84 2190.31,3475.17 2177.5,3478C 2144.15,3489.33 2114.15,3506.33 2087.5,3529C 2061.29,3541.94 2034.96,3554.61 2008.5,3567C 1988.31,3574.62 1967.65,3580.62 1946.5,3585C 1943.3,3588.54 1939.8,3591.7 1936,3594.5C 1933.39,3599.11 1930.06,3603.11 1926,3606.5C 1905.89,3636.61 1883.56,3664.94 1859,3691.5C 1834.37,3715.14 1808.87,3737.64 1782.5,3759C 1774.45,3767.05 1766.45,3775.05 1758.5,3783C 1751.42,3788.42 1744.09,3793.42 1736.5,3798C 1728.13,3799.84 1719.8,3801.84 1711.5,3804C 1707.5,3804.67 1703.5,3804.67 1699.5,3804C 1677.86,3799.45 1657.19,3792.12 1637.5,3782C 1632.5,3778.33 1627.5,3774.67 1622.5,3771C 1617.97,3765.43 1613.8,3759.6 1610,3753.5C 1608,3744.83 1606,3736.17 1604,3727.5C 1603.33,3725.17 1603.33,3722.83 1604,3720.5C 1606,3709.84 1609,3699.51 1613,3689.5C 1624.17,3674.33 1635.33,3659.17 1646.5,3644C 1638.7,3632.24 1630.54,3620.74 1622,3609.5C 1616.45,3595.29 1612.45,3580.63 1610,3565.5C 1609.86,3552.28 1610.7,3539.12 1612.5,3526C 1610.03,3506.99 1605.53,3488.49 1599,3470.5C 1596.13,3463.09 1592.46,3456.09 1588,3449.5C 1582.77,3435.25 1578.77,3420.58 1576,3405.5C 1574.42,3390.38 1572.09,3375.38 1569,3360.5C 1557.99,3337.47 1546.99,3314.47 1536,3291.5C 1531.57,3278.8 1527.9,3265.8 1525,3252.5C 1513,3148.14 1500.66,3043.81 1488,2939.5C 1480.11,2923.38 1471.44,2907.72 1462,2892.5C 1451.6,2868.64 1443.6,2843.97 1438,2818.5C 1429.44,2797.39 1421.44,2776.05 1414,2754.5C 1407.33,2725.17 1400.67,2695.83 1394,2666.5C 1386.42,2647.33 1377.25,2629 1366.5,2611.5C 1355.41,2608.98 1344.41,2606.15 1333.5,2603C 1318.13,2593.29 1306.63,2580.13 1299,2563.5C 1293.57,2544.44 1289.4,2525.1 1286.5,2505.5C 1286.62,2504.11 1286.95,2502.77 1287.5,2501.5C 1286.72,2496.55 1286.22,2491.55 1286,2486.5C 1285.89,2481.94 1284.89,2477.61 1283,2473.5C 1275.24,2454.73 1263.9,2438.39 1249,2424.5C 1240.99,2414.48 1233.99,2403.82 1228,2392.5C 1222.09,2373.87 1217.93,2354.87 1215.5,2335.5C 1218.1,2310.43 1222.93,2285.76 1230,2261.5C 1230.9,2258.93 1232.23,2256.6 1234,2254.5C 1234.63,2246.82 1234.96,2239.15 1235,2231.5C 1216.04,2201.92 1198.38,2171.59 1182,2140.5C 1172.09,2115.19 1161.42,2090.19 1150,2065.5C 1132.6,2030.38 1114.94,1995.38 1097,1960.5C 1094.52,1950.56 1092.35,1940.56 1090.5,1930.5C 1092.53,1920.04 1095.03,1909.71 1098,1899.5C 1101.96,1894.42 1105.79,1889.26 1109.5,1884C 1115.34,1880.25 1121.01,1876.25 1126.5,1872C 1304.88,1805.05 1483.54,1738.39 1662.5,1672C 1663.07,1655.66 1661.24,1639.49 1657,1623.5C 1654.69,1598.75 1656.69,1574.42 1663,1550.5C 1666.67,1545.17 1670.33,1539.83 1674,1534.5C 1694.04,1517.4 1717.2,1506.57 1743.5,1502C 1750.96,1490.24 1758.8,1478.74 1767,1467.5C 1777.3,1459.19 1788.14,1451.69 1799.5,1445C 1810.02,1441.87 1820.69,1439.37 1831.5,1437.5C 1833.66,1428.18 1835.83,1418.85 1838,1409.5C 1839.7,1407.3 1841.2,1404.97 1842.5,1402.5C 1838.87,1389.87 1836.21,1377.04 1834.5,1364C 1836.14,1349.28 1838.97,1334.78 1843,1320.5C 1844.75,1314.26 1847.08,1308.26 1850,1302.5C 1860.57,1287.26 1871.9,1272.6 1884,1258.5C 1882.52,1244.59 1882.18,1230.59 1883,1216.5C 1885.67,1205.17 1888.33,1193.83 1891,1182.5C 1895.44,1173.95 1899.61,1165.28 1903.5,1156.5C 1894.27,1137.7 1886.43,1118.37 1880,1098.5C 1873.41,1083.66 1867.08,1068.66 1861,1053.5C 1856.38,1037.68 1852.38,1021.68 1849,1005.5C 1848.39,981.59 1852.73,958.59 1862,936.5C 1874.7,923.061 1880.7,907.061 1880,888.5C 1873.25,877.994 1866.25,867.66 1859,857.5C 1848.61,836.203 1844.11,813.703 1845.5,790C 1846.21,747.019 1851.05,704.519 1860,662.5C 1873.74,613.523 1888.41,564.857 1904,516.5C 1914.22,482.066 1921.89,447.066 1927,411.5C 1928.79,395.886 1929.79,380.219 1930,364.5C 1932.33,354.833 1934.67,345.167 1937,335.5C 1941.13,328.739 1945.63,322.239 1950.5,316C 1982.71,291.914 2018.88,276.748 2059,270.5C 2069.6,272.109 2080.1,274.276 2090.5,277C 2105.1,285.275 2115.94,297.109 2123,312.5C 2127.26,322.953 2130.93,333.62 2134,344.5C 2154.51,321.99 2176.34,300.823 2199.5,281C 2212.81,267.026 2226.14,253.026 2239.5,239C 2249.32,231.586 2259.66,224.919 2270.5,219C 2287.51,214.04 2304.51,209.54 2321.5,205.5 Z"/>
  </g>
  <g>
    <path style="opacity:1" fill="#fefefe" d="M 2330.5,270.5 C 2332.86,270.337 2335.19,270.503 2337.5,271C 2369.75,286.792 2401.75,303.125 2433.5,320C 2457.02,331.955 2481.02,342.955 2505.5,353C 2511.84,355.355 2517.01,359.189 2521,364.5C 2524.43,371.197 2527.09,378.197 2529,385.5C 2531.11,398.381 2534.11,411.047 2538,423.5C 2554.06,465.278 2570.39,506.945 2587,548.5C 2595.33,565.833 2603.67,583.167 2612,600.5C 2619.36,612.214 2626.36,624.214 2633,636.5C 2655.8,682.443 2677.8,728.777 2699,775.5C 2704.19,788.722 2709.19,802.056 2714,815.5C 2722.55,845.43 2730.88,875.43 2739,905.5C 2748.73,926.222 2763.56,942.055 2783.5,953C 2793.94,953.907 2804.27,953.24 2814.5,951C 2839.08,940.441 2864.74,935.441 2891.5,936C 2893.42,936.36 2895.09,937.194 2896.5,938.5C 2901.92,947.426 2905.42,957.093 2907,967.5C 2908.14,984.087 2910.81,1000.42 2915,1016.5C 2921.85,1028.14 2930.19,1038.81 2940,1048.5C 2941,1050.17 2942,1051.83 2943,1053.5C 2944.36,1071.51 2946.03,1089.51 2948,1107.5C 2949.75,1116.23 2954.25,1123.06 2961.5,1128C 2965.17,1128.67 2968.83,1128.67 2972.5,1128C 2982.85,1120.82 2994.19,1115.82 3006.5,1113C 3008.09,1111.95 3009.59,1110.79 3011,1109.5C 3018.78,1098.92 3025.78,1087.92 3032,1076.5C 3038.17,1077.92 3044.34,1079.42 3050.5,1081C 3057.17,1083.67 3063.83,1086.33 3070.5,1089C 3077.6,1094.38 3083.44,1100.88 3088,1108.5C 3096.03,1121.85 3104.03,1135.19 3112,1148.5C 3114.86,1162.62 3113.53,1176.29 3108,1189.5C 3094.21,1203.28 3094.04,1217.12 3107.5,1231C 3108.83,1231.67 3110.17,1232.33 3111.5,1233C 3128.73,1237.09 3146.06,1240.76 3163.5,1244C 3169.88,1246.46 3176.21,1249.13 3182.5,1252C 3191.01,1262.69 3195.01,1274.85 3194.5,1288.5C 3179.5,1293.56 3164.5,1298.72 3149.5,1304C 3140.96,1308.55 3132.96,1313.88 3125.5,1320C 3118.09,1330.42 3109.92,1340.25 3101,1349.5C 3087.33,1362.5 3073.67,1375.5 3060,1388.5C 3051.59,1399.25 3042.42,1409.41 3032.5,1419C 3019.23,1429.29 3005.73,1439.12 2992,1448.5C 2981.94,1462.9 2972.27,1477.56 2963,1492.5C 2957.87,1512.37 2952.71,1532.2 2947.5,1552C 2946.5,1552.67 2945.5,1552.67 2944.5,1552C 2937.42,1548.47 2930.09,1545.47 2922.5,1543C 2918.52,1539.75 2916.02,1535.59 2915,1530.5C 2910.67,1522.35 2903.83,1518.02 2894.5,1517.5C 2889.53,1518.23 2884.53,1518.73 2879.5,1519C 2861.95,1524.74 2844.62,1531.07 2827.5,1538C 2818,1542.17 2811.17,1549 2807,1558.5C 2797.87,1599.43 2780.2,1636.1 2754,1668.5C 2745.5,1675.75 2736.17,1681.75 2726,1686.5C 2725.23,1686.36 2724.56,1686.02 2724,1685.5C 2722.31,1676.42 2717.48,1669.75 2709.5,1665.5C 2702.79,1663.3 2696.95,1664.63 2692,1669.5C 2686.65,1685.29 2683.98,1701.62 2684,1718.5C 2680.54,1730.09 2674.54,1740.09 2666,1748.5C 2662.06,1755.44 2657.73,1762.1 2653,1768.5C 2647.37,1777.05 2644.37,1786.39 2644,1796.5C 2644.51,1801.01 2646.67,1804.51 2650.5,1807C 2654,1807.66 2657,1809.16 2659.5,1811.5C 2652.78,1830.73 2647.78,1850.39 2644.5,1870.5C 2640.83,1873 2637.17,1875.5 2633.5,1878C 2618.84,1885.11 2603.84,1891.44 2588.5,1897C 2582.1,1907.88 2579.26,1919.71 2580,1932.5C 2578.55,1935.91 2576.71,1939.08 2574.5,1942C 2565.38,1950.39 2555.71,1958.06 2545.5,1965C 2527,1974.08 2508.67,1983.42 2490.5,1993C 2487.01,1995.49 2483.84,1998.32 2481,2001.5C 2478.15,2006.1 2476.98,2011.1 2477.5,2016.5C 2479.38,2030.78 2480.22,2045.12 2480,2059.5C 2469.59,2049.68 2461.92,2038.02 2457,2024.5C 2452.76,2019.96 2447.59,2018.12 2441.5,2019C 2438.17,2020.33 2434.83,2021.67 2431.5,2023C 2395.8,2051.29 2367.3,2085.46 2346,2125.5C 2343.39,2132.83 2344.56,2139.5 2349.5,2145.5C 2354.67,2147.8 2360.01,2149.8 2365.5,2151.5C 2367.15,2155.46 2369.31,2159.13 2372,2162.5C 2378.71,2168.72 2385.54,2174.72 2392.5,2180.5C 2383.14,2189.61 2373.64,2198.61 2364,2207.5C 2357.92,2214.05 2355.92,2221.72 2358,2230.5C 2360.44,2236.77 2360.77,2243.1 2359,2249.5C 2346.67,2290.82 2333.34,2331.82 2319,2372.5C 2318.33,2375.83 2318.33,2379.17 2319,2382.5C 2324.13,2402.89 2329.46,2423.22 2335,2443.5C 2336.96,2452.39 2335.3,2460.39 2330,2467.5C 2326.02,2470.65 2322.19,2473.98 2318.5,2477.5C 2315.19,2476.03 2312.69,2473.69 2311,2470.5C 2306.46,2448.21 2299.13,2426.88 2289,2406.5C 2284.14,2396.31 2276.64,2388.81 2266.5,2384C 2255.52,2382.86 2244.52,2381.86 2233.5,2381C 2208.14,2376.57 2191.64,2362.07 2184,2337.5C 2182.02,2330.26 2180.36,2322.93 2179,2315.5C 2178.17,2310.47 2178.34,2305.47 2179.5,2300.5C 2180.91,2296.35 2182.24,2292.19 2183.5,2288C 2095.74,2090.66 2007.24,1893.83 1918,1697.5C 1911.5,1680.84 1904.17,1664.5 1896,1648.5C 1875.1,1599.53 1853.26,1551.03 1830.5,1503C 1853.51,1502.67 1876.51,1502 1899.5,1501C 1899.96,1500.59 1900.29,1500.09 1900.5,1499.5C 1896.95,1485.42 1896.62,1471.25 1899.5,1457C 1898.98,1450.74 1897.98,1444.57 1896.5,1438.5C 1907.58,1436.31 1918.25,1432.81 1928.5,1428C 1933.26,1423.51 1934.76,1418.01 1933,1411.5C 1929.76,1405.88 1927.43,1399.88 1926,1393.5C 1921.1,1387.97 1915.27,1383.81 1908.5,1381C 1900.94,1376.15 1898.44,1369.32 1901,1360.5C 1902.45,1350.82 1905.11,1341.49 1909,1332.5C 1921.23,1317.72 1933.23,1302.72 1945,1287.5C 1948.98,1281.24 1951.14,1274.41 1951.5,1267C 1948.48,1251.63 1947.32,1236.13 1948,1220.5C 1948.59,1216.72 1949.59,1213.06 1951,1209.5C 1962.37,1191.56 1968.87,1171.9 1970.5,1150.5C 1970.44,1144.61 1969.28,1138.94 1967,1133.5C 1956.11,1114.4 1947.45,1094.4 1941,1073.5C 1931.19,1051.88 1922.52,1029.88 1915,1007.5C 1910.79,988.005 1915.46,971.005 1929,956.5C 1942.29,931.399 1947.62,904.732 1945,876.5C 1943.36,867.917 1940.36,859.917 1936,852.5C 1927.21,841.038 1919.21,829.038 1912,816.5C 1910.34,775.645 1912.68,734.978 1919,694.5C 1920.19,686.731 1921.86,679.064 1924,671.5C 1932.03,645.383 1940.36,619.383 1949,593.5C 1959.6,557.35 1969.6,521.017 1979,484.5C 1988.37,444.64 1994.37,404.307 1997,363.5C 2003.72,359.221 2010.55,355.054 2017.5,351C 2028.34,346.417 2039.34,342.083 2050.5,338C 2054.09,336.892 2057.75,336.392 2061.5,336.5C 2065.66,347.79 2069.83,359.124 2074,370.5C 2077.49,382.79 2080.82,395.123 2084,407.5C 2086.93,417.434 2093.43,423.6 2103.5,426C 2114.13,427.404 2124.8,427.738 2135.5,427C 2143.93,423.615 2151.6,418.949 2158.5,413C 2191.51,378.993 2225.51,345.993 2260.5,314C 2267.87,306.296 2274.87,298.296 2281.5,290C 2295.88,278.704 2312.21,272.204 2330.5,270.5 Z"/>
  </g>
  <g>
    <path style="opacity:1" fill="#fefefe" d="M 1813.5,1515.5 C 1814.38,1515.37 1815.04,1515.7 1815.5,1516.5C 1903.24,1712.63 1991.41,1908.3 2080,2103.5C 2080.33,2105.17 2080.67,2106.83 2081,2108.5C 2107.41,2166.98 2134.08,2225.32 2161,2283.5C 2156.08,2315.46 2162.08,2345.13 2179,2372.5C 2193.86,2389.51 2212.69,2399.01 2235.5,2401C 2244.17,2401.57 2252.84,2402.24 2261.5,2403C 2263.29,2403.78 2264.79,2404.95 2266,2406.5C 2268.57,2412.07 2271.57,2417.4 2275,2422.5C 2282.99,2442.8 2289.99,2463.47 2296,2484.5C 2299.04,2487.71 2302.21,2490.71 2305.5,2493.5C 2294.06,2512.41 2292.56,2532.07 2301,2552.5C 2301.64,2556.49 2302.14,2560.49 2302.5,2564.5C 2296.64,2565.22 2290.97,2566.72 2285.5,2569C 2270.71,2580.79 2256.21,2592.96 2242,2605.5C 2228.32,2629.55 2215.99,2654.22 2205,2679.5C 2201.47,2684.37 2197.3,2688.53 2192.5,2692C 2187.37,2694.4 2182.37,2697.06 2177.5,2700C 2166.7,2702.16 2156.04,2704.83 2145.5,2708C 2118.37,2716.6 2091.37,2725.6 2064.5,2735C 1977.49,2765.96 1890.65,2797.46 1804,2829.5C 1795.36,2822.86 1786.19,2817.03 1776.5,2812C 1766.99,2795.3 1759.66,2777.64 1754.5,2759C 1758.93,2753.32 1762.77,2747.15 1766,2740.5C 1770.56,2722.1 1767.23,2705.44 1756,2690.5C 1752.5,2663.85 1749.17,2637.19 1746,2610.5C 1742.74,2602.46 1738.74,2594.79 1734,2587.5C 1729.63,2547.17 1723.3,2507.17 1715,2467.5C 1713.06,2463.28 1711.39,2458.94 1710,2454.5C 1708.2,2433.52 1707.2,2412.52 1707,2391.5C 1712.5,2381.17 1718.5,2371.17 1725,2361.5C 1731.99,2346.69 1732.32,2331.69 1726,2316.5C 1722.08,2310.33 1719.58,2303.67 1718.5,2296.5C 1720.5,2283.86 1722.33,2271.19 1724,2258.5C 1733.95,2228.94 1737.45,2198.6 1734.5,2167.5C 1732.02,2165.52 1729.68,2163.35 1727.5,2161C 1721.35,2158.51 1716.19,2154.67 1712,2149.5C 1704.94,2132.51 1700.44,2114.85 1698.5,2096.5C 1697.83,2091.52 1699.16,2087.18 1702.5,2083.5C 1713.17,2074.5 1723.83,2065.5 1734.5,2056.5C 1751.15,2039.35 1767.99,2022.35 1785,2005.5C 1793.39,1990.31 1797.72,1973.98 1798,1956.5C 1800.92,1927.79 1797.92,1899.79 1789,1872.5C 1784.57,1860.86 1779.57,1849.53 1774,1838.5C 1764.55,1831.19 1754.38,1825.02 1743.5,1820C 1750.23,1803.47 1754.73,1786.3 1757,1768.5C 1758.02,1757.56 1755.36,1747.56 1749,1738.5C 1742.73,1728.3 1735.73,1718.64 1728,1709.5C 1727.97,1694.5 1727.97,1679.5 1728,1664.5C 1727.67,1657.83 1727.33,1651.17 1727,1644.5C 1722.03,1623.43 1720.37,1602.1 1722,1580.5C 1731.11,1575.24 1740.61,1570.74 1750.5,1567C 1760.75,1564.42 1771.09,1562.08 1781.5,1560C 1786.95,1556.55 1791.78,1552.39 1796,1547.5C 1800.02,1535.78 1805.86,1525.11 1813.5,1515.5 Z"/>
  </g>
  <g>
    <path style="opacity:1" fill="#fefefe" d="M 1709.5,1723.5 C 1710.82,1723.33 1711.99,1723.66 1713,1724.5C 1718.38,1730.88 1723.38,1737.55 1728,1744.5C 1731.85,1750.51 1735.01,1756.84 1737.5,1763.5C 1735.11,1776.27 1732.28,1788.94 1729,1801.5C 1727.14,1808.21 1724.48,1814.54 1721,1820.5C 1719.68,1826.54 1721.51,1831.38 1726.5,1835C 1735.25,1839.14 1743.92,1843.47 1752.5,1848C 1755.7,1850.87 1758.54,1854.04 1761,1857.5C 1765.96,1869.99 1770.63,1882.66 1775,1895.5C 1779.3,1921.43 1779.63,1947.43 1776,1973.5C 1774.92,1979.82 1772.92,1985.82 1770,1991.5C 1762.3,1999.53 1754.3,2007.2 1746,2014.5C 1727.59,2035.25 1707.59,2054.25 1686,2071.5C 1678.88,2079.52 1676.22,2088.85 1678,2099.5C 1680.45,2116.12 1684.12,2132.46 1689,2148.5C 1693.39,2162.39 1702.23,2172.39 1715.5,2178.5C 1717.25,2202.5 1714.08,2225.83 1706,2248.5C 1704.23,2264.3 1701.73,2279.97 1698.5,2295.5C 1699.52,2307.06 1703.02,2317.72 1709,2327.5C 1712.51,2335.31 1712.17,2342.98 1708,2350.5C 1703.83,2358.17 1699.17,2365.51 1694,2372.5C 1691.61,2377 1689.61,2381.67 1688,2386.5C 1687.88,2408.18 1688.54,2429.85 1690,2451.5C 1690.48,2455.53 1691.15,2459.53 1692,2463.5C 1695.45,2471.18 1698.12,2479.18 1700,2487.5C 1706.2,2523.36 1711.53,2559.36 1716,2595.5C 1719.23,2602.4 1722.9,2609.07 1727,2615.5C 1729.4,2639.53 1732.07,2663.53 1735,2687.5C 1736.47,2695.43 1739.8,2702.43 1745,2708.5C 1751.46,2722.56 1749.13,2734.89 1738,2745.5C 1737.33,2747.5 1736.67,2749.5 1736,2751.5C 1735.72,2758.9 1736.39,2766.23 1738,2773.5C 1744.4,2790.97 1751.9,2807.97 1760.5,2824.5C 1766.7,2828.86 1773.03,2833.03 1779.5,2837C 1703.04,2862.73 1626.37,2887.89 1549.5,2912.5C 1541.39,2898.38 1533.56,2884.05 1526,2869.5C 1523.51,2867.19 1521.51,2864.52 1520,2861.5C 1514.91,2850.17 1510.58,2838.5 1507,2826.5C 1504.65,2815.76 1501.98,2805.09 1499,2794.5C 1490.36,2772.63 1482.03,2750.63 1474,2728.5C 1467.19,2694.48 1459.19,2660.82 1450,2627.5C 1440.38,2607.6 1429.72,2588.26 1418,2569.5C 1405.49,2550.17 1387.66,2542 1364.5,2545C 1363.67,2544.17 1362.83,2543.33 1362,2542.5C 1358.74,2535.06 1356.07,2527.39 1354,2519.5C 1352.23,2502.2 1350.89,2484.87 1350,2467.5C 1348.4,2460.71 1346.4,2454.04 1344,2447.5C 1332.23,2421.75 1316.57,2398.75 1297,2378.5C 1287.69,2366.26 1282.53,2352.42 1281.5,2337C 1281.54,2317.02 1286.04,2298.19 1295,2280.5C 1301.17,2258.18 1302.17,2235.52 1298,2212.5C 1296.28,2207.39 1294.28,2202.39 1292,2197.5C 1277.84,2175.7 1264.18,2153.7 1251,2131.5C 1246.16,2122 1241.49,2112.33 1237,2102.5C 1230.52,2084.53 1223.19,2066.87 1215,2049.5C 1195.45,2009.68 1175.61,1970.18 1155.5,1931C 1336.53,1863.3 1517.53,1795.97 1698.5,1729C 1702.23,1727.14 1705.89,1725.3 1709.5,1723.5 Z"/>
  </g>
  <g>
    <path style="opacity:1" fill="#fefefe" d="M 2305.5,2582.5 C 2306.38,2582.37 2307.04,2582.7 2307.5,2583.5C 2314.98,2600.46 2323.48,2616.8 2333,2632.5C 2338.88,2637.72 2344.72,2642.89 2350.5,2648C 2364.19,2657.84 2378.19,2667.17 2392.5,2676C 2395.28,2678.11 2397.28,2680.78 2398.5,2684C 2393.17,2697.66 2388.33,2711.5 2384,2725.5C 2377,2735.5 2370,2745.5 2363,2755.5C 2356.9,2764.54 2353.57,2774.54 2353,2785.5C 2351.33,2804.82 2350.33,2824.15 2350,2843.5C 2352.52,2850.57 2357.52,2853.57 2365,2852.5C 2368.51,2852.29 2372.01,2851.96 2375.5,2851.5C 2382.95,2853.96 2390.62,2855.46 2398.5,2856C 2414.76,2855.61 2430.76,2856.94 2446.5,2860C 2449.55,2862.19 2452.88,2863.86 2456.5,2865C 2476.86,2879.35 2496.02,2895.19 2514,2912.5C 2518.33,2919.17 2522.67,2925.83 2527,2932.5C 2547.88,2957.05 2570.38,2979.88 2594.5,3001C 2609.71,3010.83 2625.71,3012.16 2642.5,3005C 2651.17,3004.67 2659.83,3004.33 2668.5,3004C 2673.83,3002.33 2679.17,3000.67 2684.5,2999C 2700.11,2989.06 2715.44,2978.72 2730.5,2968C 2732.09,2967.14 2733.75,2966.47 2735.5,2966C 2741.94,2961.18 2748.11,2956.01 2754,2950.5C 2756.92,2944.32 2760.59,2938.66 2765,2933.5C 2770.32,2924.08 2770.82,2914.41 2766.5,2904.5C 2766.83,2904.17 2767.17,2903.83 2767.5,2903.5C 2783.57,2918.41 2796.41,2935.74 2806,2955.5C 2809.31,2977.01 2807.14,2998.01 2799.5,3018.5C 2784.31,3024.59 2768.97,3030.43 2753.5,3036C 2732.76,3042.8 2712.09,3049.8 2691.5,3057C 2680.79,3064.04 2670.96,3072.2 2662,3081.5C 2653.39,3091.87 2644.89,3102.37 2636.5,3113C 2627.35,3119.25 2617.68,3123.75 2607.5,3126.5C 2604.9,3121.73 2601.4,3117.73 2597,3114.5C 2597.21,3102.17 2597.21,3089.84 2597,3077.5C 2593.22,3058.37 2583.05,3054.2 2566.5,3065C 2560.06,3068.77 2555.9,3074.27 2554,3081.5C 2548.68,3108.58 2543.85,3135.75 2539.5,3163C 2533.41,3169.38 2526.07,3173.72 2517.5,3176C 2513.17,3179.17 2508.83,3182.33 2504.5,3185.5C 2502.37,3184.53 2500.37,3183.37 2498.5,3182C 2488.84,3171.34 2478.84,3161 2468.5,3151C 2448.82,3138.83 2429.49,3126.16 2410.5,3113C 2406,3110.61 2401.33,3108.61 2396.5,3107C 2385.82,3106.07 2375.16,3105.07 2364.5,3104C 2359.86,3103.18 2355.53,3101.51 2351.5,3099C 2336.3,3080.45 2321.8,3061.29 2308,3041.5C 2300.7,3033.19 2292.53,3026.02 2283.5,3020C 2276.64,3017.02 2269.64,3016.68 2262.5,3019C 2240.93,3025.75 2219.26,3032.08 2197.5,3038C 2115.74,3073.37 2032.74,3105.71 1948.5,3135C 1918.17,3144.52 1887.5,3152.86 1856.5,3160C 1783.88,3181.54 1712.22,3205.87 1641.5,3233C 1624.93,3236.64 1608.26,3239.8 1591.5,3242.5C 1590.35,3242.18 1589.52,3241.52 1589,3240.5C 1576.73,3137.87 1564.9,3035.2 1553.5,2932.5C 1642.15,2904.9 1730.48,2876.4 1818.5,2847C 1823.48,2842.88 1829.15,2839.88 1835.5,2838C 1931.23,2803.14 2027.23,2768.81 2123.5,2735C 2136.12,2731.02 2148.78,2727.02 2161.5,2723C 2200.43,2717.06 2225.26,2695.23 2236,2657.5C 2243.59,2643.99 2250.92,2630.33 2258,2616.5C 2269.04,2607.16 2280.21,2597.99 2291.5,2589C 2296.03,2586.33 2300.7,2584.17 2305.5,2582.5 Z"/>
  </g>
  <g>
    <path style="opacity:1" fill="#f2f2f2" d="M 2683.5,2850.5 C 2686.15,2849.84 2688.98,2849.5 2692,2849.5C 2712.8,2847.33 2729.3,2854.49 2741.5,2871C 2722.58,2863.3 2703.25,2856.47 2683.5,2850.5 Z"/>
  </g>
  <g>
    <path style="opacity:1" fill="#fefefe" d="M 2271.5,3037.5 C 2278.7,3042.19 2285.2,3047.86 2291,3054.5C 2304.93,3075.78 2320.43,3095.94 2337.5,3115C 2342.5,3119 2348.17,3121.67 2354.5,3123C 2366.77,3124.86 2379.1,3126.19 2391.5,3127C 2405.71,3135.21 2419.38,3144.21 2432.5,3154C 2439.04,3158.03 2445.7,3161.87 2452.5,3165.5C 2464.65,3177.15 2476.65,3188.99 2488.5,3201C 2474.75,3210.21 2460.08,3217.88 2444.5,3224C 2439.58,3227.38 2434.74,3230.88 2430,3234.5C 2423.98,3244.07 2424.14,3253.57 2430.5,3263C 2426.89,3266.45 2422.89,3269.28 2418.5,3271.5C 2417.06,3271.28 2415.73,3270.78 2414.5,3270C 2406.02,3261.85 2399.52,3252.35 2395,3241.5C 2393.72,3223.52 2392.72,3205.52 2392,3187.5C 2391.02,3179.18 2386.35,3175.18 2378,3175.5C 2368.12,3176.93 2358.28,3178.6 2348.5,3180.5C 2349.36,3206.18 2350.53,3231.84 2352,3257.5C 2352.67,3269.17 2352.67,3280.83 2352,3292.5C 2347.9,3305.48 2341.9,3317.48 2334,3328.5C 2330.53,3331.3 2327.03,3334.13 2323.5,3337C 2310.96,3344.21 2298.96,3352.21 2287.5,3361C 2276.53,3368.07 2265.03,3374.24 2253,3379.5C 2249.85,3321.77 2239.52,3265.43 2222,3210.5C 2204.94,3176.71 2190.94,3141.71 2180,3105.5C 2174.86,3095.37 2169.36,3085.54 2163.5,3076C 2180.68,3067.58 2198.35,3059.92 2216.5,3053C 2226.18,3050.66 2235.84,3048.33 2245.5,3046C 2254.25,3043.03 2262.92,3040.19 2271.5,3037.5 Z"/>
  </g>
  <g>
    <path style="opacity:1" fill="#fefefe" d="M 2143.5,3082.5 C 2149.15,3089.55 2153.98,3097.22 2158,3105.5C 2165.01,3125.19 2172.01,3144.86 2179,3164.5C 2188.92,3186.01 2198.59,3207.67 2208,3229.5C 2220.61,3272.27 2228.61,3315.93 2232,3360.5C 2232.72,3369.54 2232.38,3378.54 2231,3387.5C 2212.6,3397.44 2193.44,3405.94 2173.5,3413C 2168.9,3414.06 2164.23,3414.73 2159.5,3415C 2120.59,3426.95 2085.59,3445.95 2054.5,3472C 2025.15,3486.51 1995.48,3500.18 1965.5,3513C 1948.6,3517.73 1931.6,3522.23 1914.5,3526.5C 1910.97,3529.2 1907.3,3531.7 1903.5,3534C 1894.58,3542.58 1886.08,3551.42 1878,3560.5C 1867.33,3575.83 1856.67,3591.17 1846,3606.5C 1836.56,3617.73 1826.89,3628.73 1817,3639.5C 1802.5,3653.33 1788,3667.17 1773.5,3681C 1772.5,3681.33 1771.5,3681.67 1770.5,3682C 1749.5,3701 1728.5,3720 1707.5,3739C 1706.17,3739.67 1704.83,3739.67 1703.5,3739C 1692.88,3734.07 1682.21,3729.24 1671.5,3724.5C 1671.17,3724 1670.83,3723.5 1670.5,3723C 1684.22,3703.72 1698.05,3684.56 1712,3665.5C 1716.07,3657.97 1717.4,3649.97 1716,3641.5C 1715.21,3636.79 1714.21,3632.12 1713,3627.5C 1703.6,3610.27 1692.94,3593.93 1681,3578.5C 1674.19,3567.52 1672.85,3555.86 1677,3543.5C 1677.84,3530.09 1677.17,3516.76 1675,3503.5C 1671.02,3483.89 1666.02,3464.56 1660,3445.5C 1654.34,3433.51 1648.67,3421.51 1643,3409.5C 1639.71,3381.74 1634.38,3354.41 1627,3327.5C 1615.35,3306.45 1605.35,3284.78 1597,3262.5C 1611.8,3259.76 1626.64,3256.93 1641.5,3254C 1691.91,3235.73 1742.58,3218.06 1793.5,3201C 1851.08,3184.02 1908.74,3167.35 1966.5,3151C 2023.38,3131.04 2079.71,3109.71 2135.5,3087C 2138.39,3085.73 2141.06,3084.23 2143.5,3082.5 Z"/>
  </g>
</svg>