<svg version="1.1" id="Layer_1" xmlns="http://www.w3.org/2000/svg" xmlns:xlink="http://www.w3.org/1999/xlink" x="0px" y="0px"
	 width="100%" viewBox="0 0 1500 1000" enable-background="new 0 0 1500 1000" xml:space="preserve">
<path fill="#D42E12" opacity="1.000000" stroke="none" 
	d="
M855.000000,1001.000000 
	C570.000000,1001.000000 285.500000,1001.000000 1.000000,1001.000000 
	C1.000000,667.666687 1.000000,334.333344 1.000000,1.000000 
	C501.000000,1.000000 1001.000000,1.000000 1501.000000,1.000000 
	C1501.000000,334.333344 1501.000000,667.666687 1501.000000,1001.000000 
	C1285.833374,1001.000000 1070.666626,1001.000000 855.000000,1001.000000 
M837.979431,735.395569 
	C876.612305,720.888794 909.841064,698.384399 937.273010,667.567566 
	C972.165955,628.369141 992.778137,582.642395 999.208130,530.498779 
	C1002.082153,507.191833 1001.610291,483.952240 997.729492,460.876312 
	C987.893921,402.392548 960.832642,353.187958 916.475586,313.816925 
	C877.491211,279.214539 831.868225,259.027985 780.079041,252.754471 
	C748.609619,248.942398 717.546631,251.230225 686.998108,259.330475 
	C587.192383,285.794891 514.270630,371.014252 502.763031,471.861603 
	C500.009247,495.994415 500.529266,519.987122 504.747955,543.940125 
	C512.248108,586.524719 529.253784,624.887512 556.796814,658.142822 
	C605.630737,717.104675 668.580872,748.148987 745.190979,750.870789 
	C776.840698,751.995239 807.514771,746.457947 837.979431,735.395569 
z"/>
<path fill="#F7C100" opacity="1.000000" stroke="none" 
	d="
M837.625549,735.554443 
	C807.514771,746.457947 776.840698,751.995239 745.190979,750.870789 
	C668.580872,748.148987 605.630737,717.104675 556.796814,658.142822 
	C529.253784,624.887512 512.248108,586.524719 504.747955,543.940125 
	C500.529266,519.987122 500.009247,495.994415 502.763031,471.861603 
	C514.270630,371.014252 587.192383,285.794891 686.998108,259.330475 
	C717.546631,251.230225 748.609619,248.942398 780.079041,252.754471 
	C831.868225,259.027985 877.491211,279.214539 916.475586,313.816925 
	C960.832642,353.187958 987.893921,402.392548 997.729492,460.876312 
	C1001.610291,483.952240 1002.082153,507.191833 999.208130,530.498779 
	C992.778137,582.642395 972.165955,628.369141 937.273010,667.567566 
	C909.841064,698.384399 876.612305,720.888794 837.625549,735.554443 
M832.165466,282.227936 
	C810.008545,273.962128 787.066528,269.351318 763.499329,268.098297 
	C744.644653,267.095795 725.911865,268.351685 707.289185,271.842682 
	C606.518494,290.733002 527.833191,375.865265 518.735718,479.818085 
	C516.150574,509.357147 518.969604,538.267822 527.120178,566.764282 
	C558.874695,677.786682 672.539917,750.111755 786.427979,731.685852 
	C831.668213,724.366394 872.129944,706.341675 905.798157,675.232849 
	C971.103638,614.891785 996.823425,540.032471 978.814697,453.051971 
	C961.718811,370.480072 911.012329,314.145325 832.165466,282.227936 
z"/>
<path fill="#D42E12" opacity="1.000000" stroke="none" 
	d="
M832.523804,282.380920 
	C911.012329,314.145325 961.718811,370.480072 978.814697,453.051971 
	C996.823425,540.032471 971.103638,614.891785 905.798157,675.232849 
	C872.129944,706.341675 831.668213,724.366394 786.427979,731.685852 
	C672.539917,750.111755 558.874695,677.786682 527.120178,566.764282 
	C518.969604,538.267822 516.150574,509.357147 518.735718,479.818085 
	C527.833191,375.865265 606.518494,290.733002 707.289185,271.842682 
	C725.911865,268.351685 744.644653,267.095795 763.499329,268.098297 
	C787.066528,269.351318 810.008545,273.962128 832.523804,282.380920 
M818.948181,562.953003 
	C818.948181,562.953003 818.954285,563.063049 819.593262,563.100525 
	C820.088013,562.734375 820.582764,562.368225 821.003418,562.008362 
	C821.003418,562.008362 821.011963,562.082092 821.661072,561.873352 
	C823.392700,560.091370 825.334656,558.467163 826.813110,556.495300 
	C830.123962,552.079773 833.425415,547.625977 836.292358,542.920715 
	C837.921143,540.247437 839.353027,537.450684 837.991577,533.706116 
	C836.765015,530.332336 836.487244,526.680115 840.205322,523.569397 
	C844.972961,519.580688 849.596802,516.362610 855.712524,514.048645 
	C862.230652,511.582581 868.627380,510.002228 875.327026,508.580017 
	C878.223145,507.965240 882.108643,504.996277 882.805237,502.370056 
	C884.781921,494.917175 890.373230,489.397705 891.868835,481.423004 
	C893.209839,474.272980 895.561279,467.485413 895.213867,459.931549 
	C895.045593,456.272369 893.350952,451.761353 897.452454,448.512634 
	C899.572327,446.833618 901.206116,444.520935 902.973755,442.422333 
	C905.079529,439.922333 906.757935,436.950348 909.205383,434.869537 
	C919.729370,425.921906 922.384277,415.983093 917.006165,403.348206 
	C916.452332,402.047241 914.776611,400.320038 913.625732,400.323242 
	C905.978943,400.344360 901.420898,395.288544 896.157471,390.920410 
	C893.276367,388.529419 888.980408,386.121429 885.598755,386.462189 
	C880.634399,386.962524 876.566772,385.598633 872.122803,384.341736 
	C869.041870,383.470306 865.661438,383.657623 862.292847,383.361145 
	C861.813171,382.294678 861.413147,379.637329 859.872192,378.394073 
	C857.564209,376.531891 854.532593,375.444611 851.667664,374.423706 
	C847.482788,372.932404 843.160278,370.973694 839.001221,374.893768 
	C838.799744,372.058319 838.588074,371.845398 833.701111,369.745605 
	C831.207336,368.674103 828.687805,367.662567 826.130615,366.603546 
	C826.275879,366.438263 826.726685,365.720001 827.358704,365.240692 
	C830.995728,362.482452 831.103882,360.220825 827.477051,356.918213 
	C825.230713,354.872589 824.438721,351.247284 822.936829,348.360809 
	C821.918091,346.403046 821.110413,344.219086 819.674011,342.614838 
	C812.908325,335.058716 804.513123,331.536469 794.277649,333.070862 
	C787.822205,334.038605 783.065125,330.216827 779.931763,325.881256 
	C775.870667,320.261932 771.304260,316.543030 764.343445,315.607910 
	C766.161255,309.103607 760.916931,310.032288 757.638245,308.784393 
	C756.388000,308.308533 755.297546,307.412811 754.134277,306.708435 
	C754.807068,305.860107 755.479919,305.011780 756.136536,304.183838 
	C752.422485,303.930634 748.665222,303.674500 744.537720,303.393127 
	C743.044922,307.073151 740.638245,308.561188 735.955322,306.360016 
	C732.731812,304.844910 728.761475,304.913788 725.122314,304.290375 
	C723.758118,304.056671 722.100342,304.286926 721.068176,303.583832 
	C716.948364,300.777557 713.022217,297.687134 707.317627,293.427460 
	C710.131470,300.491241 705.044434,299.974091 702.560791,301.730927 
	C701.997131,302.129578 700.658264,301.432373 699.676208,301.239624 
	C699.927429,300.284393 700.082520,299.290009 700.452026,298.382996 
	C701.033875,296.954712 701.759949,295.585175 702.424988,294.190796 
	C700.666565,294.480988 698.778198,294.458679 697.176270,295.125000 
	C693.607544,296.609344 690.243225,298.582642 686.682800,300.090179 
	C682.052307,302.050781 677.603210,303.238983 675.743164,309.399292 
	C674.631042,313.082581 671.188354,317.484497 666.085632,317.638947 
	C665.825195,319.113464 665.992432,321.363037 665.273560,321.695251 
	C661.758728,323.319458 663.657471,325.268250 664.350647,327.431122 
	C665.121216,329.835358 665.674622,332.369293 665.871216,334.882050 
	C666.116333,338.015259 665.007080,341.535706 666.078552,344.261627 
	C668.023254,349.209076 664.085449,350.496277 661.944397,352.997284 
	C660.667053,354.489410 658.979126,355.738953 658.079163,357.420532 
	C656.615601,360.155212 655.939941,363.382812 651.784668,363.258667 
	C651.217468,363.241699 650.416565,364.475067 650.060547,365.278717 
	C649.219543,367.176758 648.721924,369.230957 647.837646,371.105133 
	C643.523743,380.248505 644.055969,383.504517 651.594116,387.806885 
	C641.596558,391.604828 641.363647,398.685730 645.404053,407.271454 
	C652.195129,408.513519 653.416870,415.919128 656.671753,421.167664 
	C662.377869,430.368683 667.084534,440.191132 672.149109,449.785339 
	C672.567383,450.577576 672.425476,451.645844 672.714417,452.530151 
	C673.331299,454.418030 673.699768,456.523438 674.805725,458.091370 
	C679.515747,464.768890 686.988647,467.576050 693.911438,471.054108 
	C699.661316,473.942841 705.756470,477.389862 707.493774,483.399994 
	C709.966614,491.954468 710.278687,501.115601 707.024414,509.905151 
	C706.657959,510.894806 706.764404,512.061157 706.661377,513.146423 
	C706.011292,519.997681 705.633789,526.888245 704.647766,533.690674 
	C703.402344,542.281860 699.798706,550.973145 700.568237,559.311523 
	C701.741028,572.019958 697.237427,582.382385 691.195496,592.356689 
	C688.209717,597.285828 688.164185,601.539856 689.367615,606.553284 
	C689.761597,608.194824 689.701355,610.083374 689.334045,611.745117 
	C687.971130,617.912537 686.328674,624.018311 684.982239,630.188904 
	C684.820984,630.928162 685.830383,631.922852 686.297241,632.799194 
	C686.977417,632.082275 687.657593,631.365356 688.852783,630.304443 
	C689.130005,629.537598 689.407166,628.770813 689.837219,627.297791 
	C690.001221,625.988281 689.989807,624.607666 690.468567,623.425598 
	C690.571655,623.170959 693.092041,623.295959 693.369812,623.831665 
	C694.018738,625.083069 694.455444,626.805847 694.131775,628.130981 
	C693.243347,631.767944 691.790405,635.263306 690.804138,638.881104 
	C689.870850,642.304565 689.246094,645.812195 688.485596,649.282776 
	C688.109314,649.223389 687.733032,649.164001 687.356750,649.104614 
	C687.356750,645.690613 687.356750,642.276672 687.356750,637.983032 
	C685.243286,639.275452 683.830078,640.139648 682.403809,641.011841 
	C683.703064,643.014282 684.706360,644.560425 685.122925,645.202393 
	C681.645447,648.365112 678.824646,650.930542 675.556274,653.903015 
	C678.903687,654.403748 681.345215,654.768982 683.815857,655.138611 
	C683.109680,656.985229 682.524475,658.515503 681.983521,660.001892 
	C681.983521,660.001892 682.026917,659.957153 681.452087,660.160400 
	C681.122742,660.143250 680.642395,659.975037 680.486206,660.131165 
	C676.969910,663.646057 675.329773,672.927246 677.559509,677.285217 
	C677.781433,677.718933 679.016968,677.633972 680.140259,678.186523 
	C680.260376,678.318176 680.380493,678.449768 680.335815,679.092712 
	C680.991455,679.994019 681.529114,681.022888 682.331665,681.765381 
	C683.417969,682.770447 684.707397,683.555908 685.909729,684.435547 
	C685.670593,684.912292 685.431396,685.389038 685.192200,685.865845 
	C686.570374,685.674072 687.948486,685.482300 689.593811,685.253357 
	C688.554504,687.155823 687.718811,688.685730 686.655029,690.632996 
	C688.752014,690.981384 690.348816,691.246643 692.617126,691.623535 
	C690.525269,693.110596 688.931519,694.243652 686.393799,696.047729 
	C690.633606,697.799377 693.990112,699.186157 697.346619,700.572876 
	C698.392700,700.310852 698.544250,702.237183 699.161133,702.399902 
	C701.776428,703.089905 704.544250,703.175110 707.226379,703.650513 
	C708.436584,703.864990 709.571899,704.488770 710.749634,704.902771 
	C712.278137,705.440247 713.812744,706.387634 715.348755,706.395874 
	C719.886963,706.420410 724.448853,706.274353 728.959167,705.796082 
	C732.150818,705.457703 735.273804,704.471436 737.921265,703.886230 
	C732.227722,700.770813 725.173096,699.050476 721.931946,694.570923 
	C718.254395,689.488281 714.880615,689.366943 709.963501,689.962158 
	C709.963501,689.962158 709.824829,689.795044 710.279724,689.271912 
	C712.990540,688.448181 715.701416,687.624451 718.579285,686.750000 
	C718.388672,686.346375 718.093750,685.579712 717.685242,684.879272 
	C714.023987,678.600952 714.371643,677.515442 720.847717,674.571106 
	C721.874451,674.104370 723.449341,673.436035 723.588501,672.651245 
	C724.541138,667.278748 728.991150,665.464905 732.749451,662.764282 
	C734.136536,661.767639 734.672974,659.587036 735.597351,657.946472 
	C734.248047,657.191406 732.820251,656.546875 731.566284,655.657349 
	C729.250061,654.014160 727.035767,652.227295 724.778992,650.500366 
	C727.118408,648.320068 729.425232,646.102661 731.827026,643.993408 
	C732.266968,643.607056 733.281616,643.866150 733.708191,643.475159 
	C735.435913,641.891663 737.316589,640.358337 738.602539,638.444702 
	C739.747742,636.740417 740.160461,634.550171 740.940308,632.591919 
	C741.394348,631.451660 741.934631,630.345825 742.464905,629.160095 
	C748.166992,630.551758 748.166992,630.551758 747.528198,626.496826 
	C740.919495,627.220520 739.751587,626.020508 739.772949,617.848877 
	C742.869568,618.679016 745.803223,620.050903 748.753967,620.088684 
	C751.596497,620.125122 755.400696,620.341492 756.101257,615.986572 
	C756.566040,613.097168 756.877869,610.183289 757.280823,607.107361 
	C760.734863,606.766418 764.870544,606.555420 768.934998,605.901428 
	C772.989197,605.248962 777.417603,604.949158 780.859314,603.024048 
	C784.215454,601.146667 786.801025,597.598450 789.090698,594.338318 
	C789.590088,593.627319 787.378723,591.036926 786.460632,589.288574 
	C786.239563,588.867554 785.959900,588.253906 786.108704,587.895752 
	C788.092712,583.120667 784.524109,582.279236 781.395935,580.982849 
	C780.489441,580.607117 779.804443,579.697021 778.785156,578.835144 
	C786.606873,579.883606 794.271057,582.722229 801.077637,581.339417 
	C808.641296,579.802795 813.586365,572.738708 816.862671,565.119080 
	C817.227417,564.936340 817.592224,564.753540 818.424622,564.086121 
	C818.635803,563.706360 818.846985,563.326538 818.948181,562.953003 
M683.828735,632.506165 
	C683.828735,632.506165 683.512573,632.376953 683.512573,632.376953 
	C683.512573,632.376953 683.596924,632.698914 683.828735,632.506165 
z"/>
<path fill="#F8C200" opacity="1.000000" stroke="none" 
	d="
M688.337769,630.648438 
	C687.657593,631.365356 686.977417,632.082275 686.297241,632.799194 
	C685.830383,631.922852 684.820984,630.928162 684.982239,630.188904 
	C686.328674,624.018311 687.971130,617.912537 689.334045,611.745117 
	C689.701355,610.083374 689.761597,608.194824 689.367615,606.553284 
	C688.164185,601.539856 688.209717,597.285828 691.195496,592.356689 
	C697.237427,582.382385 701.741028,572.019958 700.568237,559.311523 
	C699.798706,550.973145 703.402344,542.281860 704.647766,533.690674 
	C705.633789,526.888245 706.011292,519.997681 706.661377,513.146423 
	C706.764404,512.061157 706.657959,510.894806 707.024414,509.905151 
	C710.278687,501.115601 709.966614,491.954468 707.493774,483.399994 
	C705.756470,477.389862 699.661316,473.942841 693.911438,471.054108 
	C686.988647,467.576050 679.515747,464.768890 674.805725,458.091370 
	C673.699768,456.523438 673.331299,454.418030 672.714417,452.530151 
	C672.425476,451.645844 672.567383,450.577576 672.149109,449.785339 
	C667.084534,440.191132 662.377869,430.368683 656.671753,421.167664 
	C653.416870,415.919128 652.195129,408.513519 645.404053,407.271454 
	C641.363647,398.685730 641.596558,391.604828 651.594116,387.806885 
	C644.055969,383.504517 643.523743,380.248505 647.837646,371.105133 
	C648.721924,369.230957 649.219543,367.176758 650.060547,365.278717 
	C650.416565,364.475067 651.217468,363.241699 651.784668,363.258667 
	C655.939941,363.382812 656.615601,360.155212 658.079163,357.420532 
	C658.979126,355.738953 660.667053,354.489410 661.944397,352.997284 
	C664.085449,350.496277 668.023254,349.209076 666.078552,344.261627 
	C665.007080,341.535706 666.116333,338.015259 665.871216,334.882050 
	C665.674622,332.369293 665.121216,329.835358 664.350647,327.431122 
	C663.657471,325.268250 661.758728,323.319458 665.273560,321.695251 
	C665.992432,321.363037 665.825195,319.113464 666.085632,317.638947 
	C671.188354,317.484497 674.631042,313.082581 675.743164,309.399292 
	C677.603210,303.238983 682.052307,302.050781 686.682800,300.090179 
	C690.243225,298.582642 693.607544,296.609344 697.176270,295.125000 
	C698.778198,294.458679 700.666565,294.480988 702.424988,294.190796 
	C701.759949,295.585175 701.033875,296.954712 700.452026,298.382996 
	C700.082520,299.290009 699.927429,300.284393 699.676270,301.239624 
	C700.658264,301.432373 701.997131,302.129578 702.560791,301.730927 
	C705.044434,299.974091 710.131470,300.491241 707.317627,293.427460 
	C713.022217,297.687134 716.948364,300.777557 721.068176,303.583832 
	C722.100342,304.286926 723.758118,304.056671 725.122314,304.290375 
	C728.761475,304.913788 732.731812,304.844910 735.955322,306.360016 
	C740.638245,308.561188 743.044922,307.073151 744.537720,303.393127 
	C748.665222,303.674500 752.422485,303.930634 756.136536,304.183838 
	C755.479919,305.011780 754.807068,305.860107 754.134277,306.708435 
	C755.297546,307.412811 756.388000,308.308533 757.638245,308.784393 
	C760.916931,310.032288 766.161255,309.103607 764.343445,315.607910 
	C771.304260,316.543030 775.870667,320.261932 779.931763,325.881256 
	C783.065125,330.216827 787.822205,334.038605 794.277649,333.070862 
	C804.513123,331.536469 812.908325,335.058716 819.674011,342.614838 
	C821.110413,344.219086 821.918091,346.403046 822.936829,348.360809 
	C824.438721,351.247284 825.230713,354.872589 827.477051,356.918213 
	C831.103882,360.220825 830.995728,362.482452 827.358704,365.240692 
	C826.726685,365.720001 826.275879,366.438263 826.130615,366.603546 
	C828.687805,367.662567 831.207336,368.674103 833.701111,369.745605 
	C838.588074,371.845398 838.799744,372.058319 839.001221,374.893768 
	C843.160278,370.973694 847.482788,372.932404 851.667664,374.423706 
	C854.532593,375.444611 857.564209,376.531891 859.872192,378.394073 
	C861.413147,379.637329 861.813171,382.294678 862.292847,383.361145 
	C865.661438,383.657623 869.041870,383.470306 872.122803,384.341736 
	C876.566772,385.598633 880.634399,386.962524 885.598755,386.462189 
	C888.980408,386.121429 893.276367,388.529419 896.157471,390.920410 
	C901.420898,395.288544 905.978943,400.344360 913.625732,400.323242 
	C914.776611,400.320038 916.452332,402.047241 917.006165,403.348206 
	C922.384277,415.983093 919.729370,425.921906 909.205383,434.869537 
	C906.757935,436.950348 905.079529,439.922333 902.973755,442.422333 
	C901.206116,444.520935 899.572327,446.833618 897.452454,448.512634 
	C893.350952,451.761353 895.045593,456.272369 895.213867,459.931549 
	C895.561279,467.485413 893.209839,474.272980 891.868835,481.423004 
	C890.373230,489.397705 884.781921,494.917175 882.805237,502.370056 
	C882.108643,504.996277 878.223145,507.965240 875.327026,508.580017 
	C868.627380,510.002228 862.230652,511.582581 855.712524,514.048645 
	C849.596802,516.362610 844.972961,519.580688 840.205322,523.569397 
	C836.487244,526.680115 836.765015,530.332336 837.991577,533.706116 
	C839.353027,537.450684 837.921143,540.247437 836.292358,542.920715 
	C833.425415,547.625977 830.123962,552.079773 826.813110,556.495300 
	C825.334656,558.467163 823.392700,560.091370 821.261475,561.671265 
	C821.039734,560.591675 821.217651,559.714111 821.395569,558.836548 
	C820.853149,558.587402 820.310730,558.338318 819.768250,558.089233 
	C818.660950,560.437195 817.553650,562.785217 816.446350,565.133240 
	C813.586365,572.738708 808.641296,579.802795 801.077637,581.339417 
	C794.271057,582.722229 786.606873,579.883606 778.785156,578.835144 
	C779.804443,579.697021 780.489441,580.607117 781.395935,580.982849 
	C784.524109,582.279236 788.092712,583.120667 786.108704,587.895752 
	C785.959900,588.253906 786.239563,588.867554 786.460632,589.288574 
	C787.378723,591.036926 789.590088,593.627319 789.090698,594.338318 
	C786.801025,597.598450 784.215454,601.146667 780.859314,603.024048 
	C777.417603,604.949158 772.989197,605.248962 768.934998,605.901428 
	C764.870544,606.555420 760.734863,606.766418 757.280823,607.107361 
	C756.877869,610.183289 756.566040,613.097168 756.101257,615.986572 
	C755.400696,620.341492 751.596497,620.125122 748.753967,620.088684 
	C745.803223,620.050903 742.869568,618.679016 739.772949,617.848877 
	C739.751587,626.020508 740.919495,627.220520 747.528198,626.496826 
	C748.166992,630.551758 748.166992,630.551758 742.464905,629.160095 
	C741.934631,630.345825 741.394348,631.451660 740.940308,632.591919 
	C740.160461,634.550171 739.747742,636.740417 738.602539,638.444702 
	C737.316589,640.358337 735.435913,641.891663 733.708191,643.475159 
	C733.281616,643.866150 732.266968,643.607056 731.827026,643.993408 
	C729.425232,646.102661 727.118408,648.320068 724.778992,650.500366 
	C727.035767,652.227295 729.250061,654.014160 731.566284,655.657349 
	C732.820251,656.546875 734.248047,657.191406 735.597351,657.946472 
	C734.672974,659.587036 734.136536,661.767639 732.749451,662.764282 
	C728.991150,665.464905 724.541138,667.278748 723.588501,672.651245 
	C723.449341,673.436035 721.874451,674.104370 720.847717,674.571106 
	C714.371643,677.515442 714.023987,678.600952 717.685242,684.879272 
	C718.093750,685.579712 718.388672,686.346375 718.579285,686.750000 
	C715.701416,687.624451 712.990540,688.448181 709.767700,689.583008 
	C708.829590,690.252869 708.403564,690.611694 707.612000,691.010376 
	C704.078064,694.642700 705.646423,699.217773 711.090454,700.625610 
	C709.412170,698.405701 707.864441,696.243469 712.183533,695.425049 
	C709.880554,694.446045 705.451965,696.065063 708.567383,691.292114 
	C709.252563,690.837036 709.677490,690.482971 710.102356,690.128967 
	C714.880615,689.366943 718.254395,689.488281 721.931946,694.570923 
	C725.173096,699.050476 732.227722,700.770813 737.921265,703.886230 
	C735.273804,704.471436 732.150818,705.457703 728.959167,705.796082 
	C724.448853,706.274353 719.886963,706.420410 715.348755,706.395874 
	C713.812744,706.387634 712.278137,705.440247 710.749634,704.902771 
	C709.571899,704.488770 708.436584,703.864990 707.226379,703.650513 
	C704.544250,703.175110 701.776428,703.089905 699.161133,702.399902 
	C698.544250,702.237183 698.392700,700.310852 697.346619,700.572876 
	C693.990112,699.186157 690.633606,697.799377 686.393799,696.047729 
	C688.931519,694.243652 690.525269,693.110596 692.617126,691.623535 
	C690.348816,691.246643 688.752014,690.981384 686.655029,690.632996 
	C687.718811,688.685730 688.554504,687.155823 689.593811,685.253357 
	C687.948486,685.482300 686.570374,685.674072 685.192200,685.865845 
	C685.431396,685.389038 685.670593,684.912292 685.909729,684.435547 
	C684.707397,683.555908 683.417969,682.770447 682.331665,681.765381 
	C681.529114,681.022888 680.991455,679.994019 680.696167,678.732361 
	C681.359558,677.638245 681.662720,676.904419 681.965820,676.170593 
	C681.237915,676.710327 680.510010,677.250000 679.782104,677.789734 
	C679.016968,677.633972 677.781433,677.718933 677.559509,677.285217 
	C675.329773,672.927246 676.969910,663.646057 680.486206,660.131165 
	C680.642395,659.975037 681.122742,660.143250 681.723877,660.340454 
	C682.521118,660.618347 683.046570,660.716309 683.572021,660.814270 
	C683.596252,660.614563 683.620544,660.414856 683.644836,660.215149 
	C683.076294,660.158752 682.507812,660.102295 681.939209,660.045837 
	C682.524475,658.515503 683.109680,656.985229 683.815857,655.138611 
	C681.345215,654.768982 678.903687,654.403748 675.556274,653.903015 
	C678.824646,650.930542 681.645447,648.365112 685.122925,645.202393 
	C684.706360,644.560425 683.703064,643.014282 682.403809,641.011841 
	C683.830078,640.139648 685.243286,639.275452 687.356750,637.983032 
	C687.356750,642.276672 687.356750,645.690613 687.356750,649.104614 
	C687.733032,649.164001 688.109314,649.223389 688.485596,649.282776 
	C689.246094,645.812195 689.870850,642.304565 690.804138,638.881104 
	C691.790405,635.263306 693.243347,631.767944 694.131775,628.130981 
	C694.455444,626.805847 694.018738,625.083069 693.369812,623.831665 
	C693.092041,623.295959 690.571655,623.170959 690.468567,623.425598 
	C689.989807,624.607666 690.001221,625.988281 689.534058,627.855103 
	C688.933228,629.157776 688.635498,629.903076 688.337769,630.648438 
M699.816345,312.347534 
	C700.740295,312.341187 701.664185,312.334808 702.588074,312.328461 
	C702.411743,310.281250 702.235413,308.234039 701.985779,305.336365 
	C698.499756,307.592133 696.661377,309.055542 699.816345,312.347534 
M822.636414,556.723694 
	C823.350098,556.291931 824.063843,555.860107 824.777588,555.428284 
	C824.485901,555.088196 824.194275,554.748108 823.902649,554.408020 
	C823.346375,555.026672 822.790100,555.645264 822.636414,556.723694 
M836.724670,377.374603 
	C837.098267,377.407501 837.471924,377.440369 837.845520,377.473267 
	C837.859680,377.197113 837.873901,376.920929 837.888062,376.644745 
	C837.540283,376.718811 837.192444,376.792847 836.724670,377.374603 
M704.787415,698.198181 
	C704.695129,697.924500 704.602844,697.650818 704.510559,697.377136 
	C704.392395,697.482117 704.165344,697.600342 704.176208,697.689575 
	C704.210022,697.967163 704.334045,698.233826 704.787415,698.198181 
z"/>
<path fill="#DD540D" opacity="1.000000" stroke="none" 
	d="
M816.654541,565.126160 
	C817.553650,562.785217 818.660950,560.437195 819.768250,558.089233 
	C820.310730,558.338318 820.853149,558.587402 821.395569,558.836548 
	C821.217651,559.714111 821.039734,560.591675 820.936890,561.775635 
	C821.011963,562.082092 821.003418,562.008362 820.719360,561.970398 
	C819.941650,562.309326 819.447937,562.686157 818.954285,563.062988 
	C818.954285,563.063049 818.948181,562.953003 818.748535,563.164490 
	C818.351562,563.774231 818.154236,564.172485 817.956909,564.570801 
	C817.592224,564.753540 817.227417,564.936340 816.654541,565.126160 
z"/>
<path fill="#F5B801" opacity="1.000000" stroke="none" 
	d="
M688.595276,630.476440 
	C688.635498,629.903076 688.933228,629.157776 689.457642,628.208191 
	C689.407166,628.770813 689.130005,629.537598 688.595276,630.476440 
z"/>
<path fill="#F8C200" opacity="1.000000" stroke="none" 
	d="
M819.273804,563.081787 
	C819.447937,562.686157 819.941650,562.309326 820.756409,561.967285 
	C820.582764,562.368225 820.088013,562.734375 819.273804,563.081787 
z"/>
<path fill="#F8C200" opacity="1.000000" stroke="none" 
	d="
M818.190796,564.328491 
	C818.154236,564.172485 818.351562,563.774231 818.803467,563.161377 
	C818.846985,563.326538 818.635803,563.706360 818.190796,564.328491 
z"/>
<path fill="#F5B801" opacity="1.000000" stroke="none" 
	d="
M683.712830,632.602539 
	C683.596924,632.698914 683.512573,632.376953 683.512573,632.376953 
	C683.512573,632.376953 683.828735,632.506165 683.712830,632.602539 
z"/>
<path fill="#D63511" opacity="1.000000" stroke="none" 
	d="
M699.593018,312.085754 
	C696.661377,309.055542 698.499756,307.592133 701.985779,305.336365 
	C702.235413,308.234039 702.411743,310.281250 702.588135,312.328461 
	C701.664185,312.334808 700.740295,312.341187 699.593018,312.085754 
z"/>
<path fill="#D42E12" opacity="1.000000" stroke="none" 
	d="
M708.307068,691.393250 
	C705.451965,696.065063 709.880554,694.446045 712.183533,695.425049 
	C707.864441,696.243469 709.412170,698.405701 711.090454,700.625610 
	C705.646423,699.217773 704.078064,694.642700 707.694763,691.115784 
	C708.143066,691.181335 708.307068,691.393250 708.307068,691.393250 
z"/>
<path fill="#DD540D" opacity="1.000000" stroke="none" 
	d="
M822.435120,556.493774 
	C822.790100,555.645264 823.346375,555.026672 823.902649,554.408020 
	C824.194275,554.748108 824.485901,555.088196 824.777588,555.428284 
	C824.063843,555.860107 823.350098,556.291931 822.435120,556.493774 
z"/>
<path fill="#D42E12" opacity="1.000000" stroke="none" 
	d="
M679.961182,677.988159 
	C680.510010,677.250000 681.237915,676.710327 681.965820,676.170593 
	C681.662720,676.904419 681.359558,677.638245 680.778564,678.476685 
	C680.380493,678.449768 680.260376,678.318176 679.961182,677.988159 
z"/>
<path fill="#D42E12" opacity="1.000000" stroke="none" 
	d="
M836.784668,377.120758 
	C837.192444,376.792847 837.540283,376.718811 837.888062,376.644775 
	C837.873901,376.920929 837.859680,377.197113 837.845520,377.473267 
	C837.471924,377.440369 837.098267,377.407501 836.784668,377.120758 
z"/>
<path fill="#D42E12" opacity="1.000000" stroke="none" 
	d="
M681.961426,660.023865 
	C682.507812,660.102295 683.076294,660.158752 683.644836,660.215149 
	C683.620544,660.414856 683.596252,660.614563 683.572021,660.814270 
	C683.046570,660.716309 682.521118,660.618347 682.011292,660.238770 
	C682.026917,659.957153 681.983521,660.001892 681.961426,660.023865 
z"/>
<path fill="#D42E12" opacity="1.000000" stroke="none" 
	d="
M710.032959,690.045532 
	C709.677490,690.482971 709.252563,690.837036 708.567383,691.292114 
	C708.307068,691.393250 708.143066,691.181335 708.060303,691.075928 
	C708.403564,690.611694 708.829590,690.252869 709.540222,689.844543 
	C709.824829,689.795044 709.963501,689.962158 710.032959,690.045532 
z"/>
<path fill="#D42E12" opacity="1.000000" stroke="none" 
	d="
M704.605225,698.351440 
	C704.334045,698.233826 704.210022,697.967163 704.176208,697.689575 
	C704.165344,697.600342 704.392395,697.482117 704.510620,697.377136 
	C704.602844,697.650818 704.695129,697.924500 704.605225,698.351440 
z"/>
</svg>