<svg version="1.1" id="Layer_1" xmlns="http://www.w3.org/2000/svg" xmlns:xlink="http://www.w3.org/1999/xlink" x="0px" y="0px"
	 width="100%" viewBox="0 0 479 331" enable-background="new 0 0 479 331" xml:space="preserve">
<path fill="#FEFEFD" opacity="1.000000" stroke="none" 
	d="
M267.000000,332.000000 
	C178.027313,332.000000 89.554619,332.000000 1.040963,332.000000 
	C1.040963,221.728027 1.040963,111.456047 1.040963,1.092032 
	C160.556000,1.092032 320.112061,1.092032 479.834045,1.092032 
	C479.834045,111.333138 479.834045,221.666550 479.834045,332.000000 
	C409.122772,332.000000 338.311401,332.000000 267.000000,332.000000 
M391.795258,247.215622 
	C391.795258,247.215622 391.930603,247.535614 391.472961,248.145798 
	C392.028290,248.745438 392.583618,249.345093 393.652771,250.333862 
	C394.478607,251.783890 395.304443,253.233917 396.105560,255.308563 
	C396.440002,255.734100 396.774475,256.159637 397.108917,256.585175 
	C397.409210,256.105133 397.709473,255.625107 398.750031,254.985687 
	C399.500702,255.033569 400.251343,255.081436 401.183960,255.434082 
	C401.454987,255.335388 401.726044,255.236694 402.820038,254.981110 
	C404.923065,254.656799 407.026123,254.332474 410.028229,254.011520 
	C411.840790,253.949417 413.653351,253.887299 416.065155,254.215454 
	C417.706818,254.515732 419.348511,254.815994 421.076324,255.690277 
	C421.399353,255.992172 421.722382,256.294067 422.045380,256.595947 
	C422.366943,256.102173 422.688477,255.608398 423.934570,254.958252 
	C434.285706,255.016495 444.636810,255.074738 455.147797,255.830048 
	C457.008759,256.178345 458.869751,256.526642 460.415802,256.816010 
	C460.763489,254.445663 461.347473,252.934799 461.077576,251.596069 
	C460.817902,250.307983 459.675018,249.197937 458.162903,247.725494 
	C449.775024,247.491257 441.387146,247.257019 432.924866,246.323425 
	C431.669495,245.544357 430.414093,244.765289 428.977325,243.066116 
	C428.977325,233.550522 428.977325,224.034927 428.977325,214.388367 
	C426.897675,214.087433 425.459839,213.879364 423.837555,213.015854 
	C422.218536,213.243820 420.599518,213.471786 418.268158,213.868088 
	C417.222656,214.915833 416.177155,215.963562 414.436279,217.094162 
	C412.340820,218.610458 412.802856,219.520401 415.329407,220.909790 
	C415.263824,228.276505 415.198273,235.643234 414.412842,243.113312 
	C412.221680,244.852951 412.219971,246.189484 415.324127,247.655273 
	C415.257141,248.107864 415.190125,248.560471 414.369934,249.019745 
	C412.502838,250.045258 410.635712,251.070770 408.247009,251.707352 
	C407.456726,250.154526 406.666473,248.601700 406.464203,246.588089 
	C407.757721,243.673752 406.324280,242.893494 403.292450,242.809189 
	C403.131439,242.380402 402.970428,241.951599 402.916565,240.690689 
	C402.012726,239.454147 401.108887,238.217606 399.735077,236.469757 
	C398.122528,233.396103 396.509979,230.322449 394.964111,226.500031 
	C394.301666,225.669296 393.639221,224.838577 392.446533,223.578796 
	C391.463593,221.842621 390.498535,220.096024 389.494446,218.372177 
	C386.109131,212.560410 375.581665,211.788010 370.357574,217.061737 
	C369.969269,218.066055 369.580994,219.070374 369.064240,220.764679 
	C367.444519,223.533310 365.824799,226.301941 363.614166,229.410355 
	C363.496429,229.836365 363.378693,230.262360 363.257233,230.868927 
	C363.257233,230.868927 363.115234,230.980530 362.568207,231.351471 
	C362.445862,231.763824 362.323547,232.176178 362.069946,233.234924 
	C358.163300,240.167130 354.256653,247.099335 349.937622,254.763321 
	C357.329193,254.815842 363.947571,257.043243 367.549713,248.982346 
	C368.369293,248.012833 369.188873,247.043335 370.815643,245.835739 
	C372.210480,245.894562 373.605316,245.953400 375.169098,246.349762 
	C375.446167,246.243942 375.723236,246.138107 376.911041,245.846252 
	C380.938293,245.927231 384.965546,246.008224 389.154358,246.807816 
	C389.941010,246.875610 390.727692,246.943390 391.795258,247.215622 
M421.965729,197.987061 
	C421.965729,197.987061 421.877350,197.888489 422.613800,197.884262 
	C424.628265,195.985413 424.944458,194.587372 421.228546,194.262527 
	C421.228546,194.262527 420.995056,194.037979 420.639374,193.523651 
	C420.244385,193.497162 419.849396,193.470673 418.899384,193.265381 
	C418.273010,192.820770 417.646637,192.376160 416.954468,191.243668 
	C410.864136,184.966354 403.150482,182.734589 394.935760,181.984482 
	C394.935760,181.984482 394.723694,182.325439 394.637207,181.579514 
	C390.787964,180.377762 386.938690,179.176010 382.865875,177.633209 
	C382.865875,177.633209 382.853394,177.225601 382.948425,176.562622 
	C381.939606,176.577271 380.930817,176.591904 379.451569,176.768433 
	C379.451569,176.768433 379.018494,177.013321 378.265900,176.979797 
	C377.513245,176.987534 376.760620,176.995285 375.997559,177.000137 
	C375.997559,177.000137 375.999176,176.988678 376.056427,176.406281 
	C375.330841,175.573227 374.605255,174.740173 373.612427,173.114838 
	C372.375305,169.730606 371.874115,165.761185 369.746307,163.085205 
	C365.453644,157.686630 364.246521,151.536133 363.074280,145.111893 
	C361.681305,137.478012 359.823242,129.928543 358.142181,122.347946 
	C357.681580,120.270813 357.083130,118.223877 356.637115,116.143967 
	C356.019623,113.264542 356.127045,110.008598 354.759857,107.565361 
	C352.932312,104.299492 350.068420,101.586174 347.511841,98.760170 
	C331.549438,81.115509 311.144501,74.238129 287.956360,75.112160 
	C279.697510,75.423470 271.523987,77.599342 263.271942,78.596573 
	C253.989075,79.718361 244.936844,80.151451 236.164215,75.050117 
	C227.854752,70.218124 218.413635,70.222656 208.960602,71.385490 
	C200.741608,72.396538 194.119263,76.820847 187.015167,80.420998 
	C176.844681,85.575096 166.382172,90.152939 155.458664,95.250137 
	C152.364136,92.149391 149.366470,93.032768 146.295929,97.517105 
	C145.415207,98.803337 141.863815,99.368057 140.097275,98.724808 
	C135.517715,97.057251 134.151138,97.562714 132.679001,102.261757 
	C131.834351,104.957901 130.283508,107.444885 128.949036,109.972412 
	C127.338707,113.022469 123.657272,116.608421 124.352585,118.911858 
	C125.863747,123.918037 123.017845,126.009315 120.564369,128.763474 
	C117.825005,131.838531 114.988174,134.826782 111.568527,138.529877 
	C114.799171,139.860428 117.970078,141.994080 121.313446,142.311584 
	C124.684990,142.631714 128.227722,141.149002 131.900223,140.415268 
	C131.236572,141.260834 130.434311,141.947281 130.066879,142.817352 
	C129.155167,144.976227 128.442001,147.218933 127.649086,149.427979 
	C130.512955,149.740631 133.372787,150.107666 136.244034,150.320740 
	C136.828461,150.364120 137.493576,149.890335 138.057587,149.549271 
	C143.096542,146.502213 148.001816,145.959030 152.698624,150.677628 
	C162.164612,140.942154 173.564651,136.050949 187.659714,134.872314 
	C184.600098,144.658844 183.486435,154.283646 176.436768,161.678879 
	C172.903198,165.385681 169.845383,169.542130 166.456039,173.392792 
	C165.505478,174.472717 164.131378,175.959579 162.969360,175.943848 
	C156.653915,175.858337 151.529999,178.914978 145.801727,180.909149 
	C136.238281,177.063492 127.146233,180.047638 117.363411,182.907700 
	C116.911041,182.947525 116.458664,182.987335 115.227516,183.061691 
	C111.920044,183.732285 108.616249,184.938614 105.304321,184.961334 
	C98.520706,185.007889 92.343796,186.408340 86.495750,190.862045 
	C86.334061,190.911499 86.172379,190.960968 85.207611,190.965225 
	C78.824463,192.384842 72.434700,193.776733 66.074753,195.293640 
	C65.697014,195.383743 65.558525,196.476990 65.075821,197.414062 
	C65.075821,197.414062 64.842560,197.724380 64.147331,197.646393 
	C64.113289,198.427353 64.079247,199.208313 63.803509,200.536697 
	C71.963821,200.994339 80.121468,201.521271 88.287277,201.836334 
	C89.539597,201.884628 90.829613,200.955826 92.694572,200.323853 
	C93.097519,200.368317 93.500465,200.412781 94.202805,201.130798 
	C96.882515,201.682022 99.601974,202.837341 102.234024,202.664169 
	C108.561996,202.247833 114.848999,201.208694 121.069977,200.277924 
	C121.069977,200.277924 121.060745,200.113159 121.646957,200.355743 
	C122.068787,200.380661 122.490623,200.405594 123.651863,200.815338 
	C129.804413,200.853683 135.958191,200.984039 142.109146,200.902313 
	C147.370041,200.832413 152.627716,200.519302 158.690994,200.244629 
	C159.759201,200.342056 160.827393,200.439484 162.170792,201.152359 
	C163.796478,201.014923 165.422150,200.877502 167.708481,200.653748 
	C168.145157,200.725327 168.581833,200.796906 169.543732,201.494980 
	C178.050018,201.829910 186.556290,202.164841 195.548035,202.408112 
	C195.548035,202.408112 195.967712,202.147461 196.605576,202.315369 
	C197.036987,202.392090 197.468399,202.468796 198.180496,203.171021 
	C198.615463,203.381027 199.061462,203.794571 199.483810,203.771683 
	C216.498718,202.849045 233.517532,201.979492 250.520477,200.867889 
	C255.029755,200.573074 259.489380,199.518631 264.704193,198.638855 
	C265.453308,198.673660 266.202393,198.708481 267.151550,199.223801 
	C267.805695,199.043381 268.459869,198.862961 269.898346,198.442749 
	C271.263153,198.405899 272.627991,198.369049 274.660736,198.816757 
	C303.916718,199.515701 333.170258,200.579620 362.429596,200.775284 
	C379.688568,200.890701 396.957062,199.637268 414.219696,198.959824 
	C414.824921,198.936081 415.413422,198.487305 416.794281,198.084702 
	C417.856476,198.124084 418.918640,198.163483 420.320679,198.621689 
	C420.851593,198.369614 421.382507,198.117538 421.965729,197.987061 
M39.891331,231.016052 
	C40.640690,230.988739 41.390045,230.961426 42.738098,231.217072 
	C48.997829,237.894455 55.262074,244.567627 61.515297,251.251114 
	C64.449936,254.387695 72.975082,256.404877 76.608147,254.583725 
	C77.389267,254.192169 78.134590,252.843765 78.142555,251.929581 
	C78.243980,240.277573 78.294861,228.622574 78.058380,216.974457 
	C78.037117,215.927109 76.086426,214.479706 74.753952,214.015381 
	C73.269012,213.497940 71.456032,214.009384 69.804138,213.864471 
	C66.793922,213.600433 65.585350,214.797119 65.730354,217.870987 
	C65.918411,221.857513 65.777420,225.859573 65.777756,229.854950 
	C65.778023,232.998047 65.777809,236.141159 65.777809,239.284256 
	C65.269180,239.399139 64.760559,239.514023 64.251930,239.628906 
	C62.841789,238.290695 61.365025,237.015305 60.033417,235.603058 
	C55.123989,230.396301 49.770748,225.510559 45.521877,219.805878 
	C41.295139,214.130920 35.991562,213.430847 29.793091,213.812286 
	C27.307140,213.965256 26.196096,214.771576 26.212217,217.363739 
	C26.282604,228.683426 26.136095,240.006332 26.403391,251.320175 
	C26.432192,252.539291 28.508444,253.896500 29.883575,254.819077 
	C30.576696,255.284088 31.841791,254.812561 32.823811,254.945297 
	C37.423622,255.567123 39.412258,254.000473 39.082561,248.990509 
	C38.690357,243.030655 39.086773,237.018906 39.891331,231.016052 
M105.500069,270.297882 
	C74.422539,270.297882 43.345005,270.297882 12.331789,270.297882 
	C12.331789,287.288666 12.331789,303.525879 12.331789,319.685272 
	C166.051407,319.685272 319.403961,319.685272 472.669708,319.685272 
	C472.669708,303.100555 472.669708,286.872345 472.669708,270.298065 
	C350.368103,270.298065 228.434082,270.298065 105.500069,270.297882 
M172.016449,239.319275 
	C177.147934,239.217239 182.283691,238.939804 187.409622,239.064972 
	C192.071686,239.178802 194.684799,241.815903 195.222946,246.506638 
	C195.430984,248.320038 195.507462,250.272934 196.273407,251.858078 
	C196.873627,253.100220 198.352371,254.553055 199.600967,254.720947 
	C202.662155,255.132538 205.815933,254.855438 209.766006,254.855438 
	C207.324234,247.582382 210.057419,239.179749 200.475189,235.607437 
	C202.039642,234.600494 202.721542,234.159119 203.405869,233.721573 
	C210.994583,228.869385 210.727173,220.516098 202.580322,216.557022 
	C199.537354,215.078232 195.937637,214.173340 192.558075,214.065842 
	C182.259125,213.738220 171.941635,214.041687 161.635986,213.850113 
	C158.126801,213.784851 157.513596,215.343887 157.557175,218.369217 
	C157.688889,227.512451 157.535233,236.659393 157.609528,245.803940 
	C157.692886,256.063751 155.940872,254.726089 167.003860,254.942993 
	C169.991272,255.001587 171.218948,253.985046 171.136276,250.937988 
	C171.037537,247.298523 171.281998,243.649750 172.016449,239.319275 
M135.188843,216.173172 
	C123.295937,211.551865 111.394424,211.428497 99.758408,216.776215 
	C92.228325,220.236893 87.685585,226.166443 87.824074,234.812851 
	C87.963318,243.506302 92.872688,249.054810 100.484573,252.319031 
	C111.373901,256.988708 122.514503,257.168640 133.614105,253.093903 
	C141.652374,250.142990 147.521820,244.977539 148.146545,235.853607 
	C148.782806,226.561371 143.842422,220.495804 135.188843,216.173172 
M319.501160,220.414551 
	C323.488617,221.794571 327.962311,222.454254 331.341644,224.735229 
	C335.653961,227.645935 340.612976,228.855072 346.863312,225.735367 
	C344.047516,222.843307 341.843475,219.665909 338.851166,217.670792 
	C328.204590,210.572220 308.465454,211.296844 297.983917,218.765778 
	C286.864319,226.689377 286.690765,241.566589 297.623077,249.695724 
	C308.033600,257.436859 328.735657,257.955750 339.399261,250.684677 
	C343.212463,248.084625 346.080994,244.826675 346.324402,238.388931 
	C341.706207,239.258057 336.192749,238.635910 333.695038,241.086929 
	C327.054810,247.603043 319.988861,250.205978 311.502380,246.818466 
	C302.205414,243.107437 299.734741,230.326370 307.574341,224.391373 
	C310.545044,222.142380 314.878754,221.693787 319.501160,220.414551 
M263.461456,246.857529 
	C263.244659,246.227539 263.129242,245.536987 262.794952,244.977173 
	C260.167664,240.577377 260.927551,237.467987 265.802704,235.168365 
	C268.757629,233.774521 271.316254,231.540497 275.212250,228.897446 
	C269.282532,228.897446 264.948181,228.731689 260.634125,228.956161 
	C257.797119,229.103790 256.453430,228.067886 255.645691,225.373398 
	C254.540344,221.686142 252.985641,218.133591 251.141479,213.245682 
	C249.447891,217.927322 247.976028,221.268829 247.052811,224.755585 
	C246.153885,228.150543 244.295456,229.191071 240.921860,228.955322 
	C236.890350,228.673599 232.824127,228.888855 228.772934,228.888855 
	C230.597015,231.292435 232.604935,232.681702 234.639435,234.030853 
	C241.816940,238.790573 241.811127,238.782059 239.020294,246.653839 
	C238.283997,248.730591 237.624191,250.834457 236.484665,254.263870 
	C240.847443,251.472290 244.156235,249.802734 246.909622,247.475952 
	C250.097183,244.782272 252.597244,245.223907 255.639725,247.600449 
	C258.561462,249.882690 261.852661,251.691925 265.989197,254.358643 
	C264.979919,251.259689 264.375153,249.402756 263.461456,246.857529 
z"/>
<path fill="#B51536" opacity="1.000000" stroke="none" 
	d="
M106.000076,270.297974 
	C228.434082,270.298065 350.368103,270.298065 472.669708,270.298065 
	C472.669708,286.872345 472.669708,303.100555 472.669708,319.685272 
	C319.403961,319.685272 166.051407,319.685272 12.331789,319.685272 
	C12.331789,303.525879 12.331789,287.288666 12.331789,270.297882 
	C43.345005,270.297882 74.422539,270.297882 106.000076,270.297974 
z"/>
<path fill="#58472A" opacity="1.000000" stroke="none" 
	d="
M146.249771,181.650726 
	C151.529999,178.914978 156.653915,175.858337 162.969360,175.943848 
	C164.131378,175.959579 165.505478,174.472717 166.456039,173.392792 
	C169.845383,169.542130 172.903198,165.385681 176.436768,161.678879 
	C183.486435,154.283646 184.600098,144.658844 187.659714,134.872314 
	C173.564651,136.050949 162.164612,140.942154 152.698624,150.677628 
	C148.001816,145.959030 143.096542,146.502213 138.057587,149.549271 
	C137.493576,149.890335 136.828461,150.364120 136.244034,150.320740 
	C133.372787,150.107666 130.512955,149.740631 127.649086,149.427979 
	C128.442001,147.218933 129.155167,144.976227 130.066879,142.817352 
	C130.434311,141.947281 131.236572,141.260834 131.900223,140.415268 
	C128.227722,141.149002 124.684990,142.631714 121.313446,142.311584 
	C117.970078,141.994080 114.799171,139.860428 111.568527,138.529877 
	C114.988174,134.826782 117.825005,131.838531 120.564369,128.763474 
	C123.017845,126.009315 125.863747,123.918037 124.352585,118.911858 
	C123.657272,116.608421 127.338707,113.022469 128.949036,109.972412 
	C130.283508,107.444885 131.834351,104.957901 132.679001,102.261757 
	C134.151138,97.562714 135.517715,97.057251 140.097275,98.724808 
	C141.863815,99.368057 145.415207,98.803337 146.295929,97.517105 
	C149.366470,93.032768 152.364136,92.149391 155.458664,95.250137 
	C166.382172,90.152939 176.844681,85.575096 187.015167,80.420998 
	C194.119263,76.820847 200.741608,72.396538 208.960602,71.385490 
	C218.413635,70.222656 227.854752,70.218124 236.164215,75.050117 
	C244.936844,80.151451 253.989075,79.718361 263.271942,78.596573 
	C271.523987,77.599342 279.697510,75.423470 287.956360,75.112160 
	C311.144501,74.238129 331.549438,81.115509 347.511841,98.760170 
	C350.068420,101.586174 352.932312,104.299492 354.759857,107.565361 
	C356.127045,110.008598 356.019623,113.264542 356.637115,116.143967 
	C357.083130,118.223877 357.681580,120.270813 358.142181,122.347946 
	C359.823242,129.928543 361.681305,137.478012 363.074280,145.111893 
	C364.246521,151.536133 365.453644,157.686630 369.746307,163.085205 
	C371.874115,165.761185 372.375305,169.730606 373.612854,173.853226 
	C373.542328,175.319107 373.471405,176.046616 373.054382,176.927399 
	C366.713654,180.540314 360.637817,183.365646 353.443329,183.843155 
	C346.054230,184.333572 341.986755,181.832642 343.565186,176.151367 
	C348.082581,175.287842 352.192261,174.505814 356.301941,173.723785 
	C356.352356,172.944702 356.402771,172.165619 356.453186,171.386520 
	C346.065521,166.852722 331.704437,169.603073 326.546234,155.573685 
	C322.866547,157.797073 319.439056,159.468201 316.483734,161.750687 
	C312.396729,164.907211 308.665283,168.524063 304.455200,172.013947 
	C302.548218,173.519165 300.636505,174.725189 299.453491,176.435333 
	C296.696167,180.421295 293.689697,183.488953 288.328583,183.448715 
	C281.713165,183.399048 275.082458,184.049225 268.483459,183.780518 
	C265.648682,183.665070 262.877106,181.998169 260.223358,181.086502 
	C261.560669,178.465240 262.425415,176.770248 263.729858,175.082489 
	C268.160065,175.018997 272.150665,174.954086 276.141022,174.875549 
	C278.841248,174.822403 279.939880,173.650360 279.649536,170.769272 
	C278.876892,163.102280 278.354065,155.410110 277.711792,147.479828 
	C270.524872,147.479828 262.877960,147.479828 255.000870,147.479828 
	C256.762878,155.699188 266.104492,162.517746 258.806274,172.118530 
	C256.225739,175.628174 254.693146,179.875092 249.653900,179.951279 
	C244.007843,180.036652 238.358765,180.080902 232.713394,179.991943 
	C229.293701,179.938080 228.028046,178.487442 230.145340,175.248627 
	C230.674667,174.438919 230.915466,173.440582 231.675720,172.557510 
	C235.514816,171.997253 238.967026,171.408417 244.024216,170.545837 
	C235.637405,163.404648 228.462128,157.295059 221.968399,151.765778 
	C214.038727,158.492615 206.163116,165.173584 197.963135,172.004669 
	C194.833023,174.188614 191.947159,176.121536 189.236267,178.274765 
	C180.365128,185.320953 169.958267,187.403412 159.090744,186.861420 
	C154.551956,186.635071 149.031586,187.406067 146.037109,182.141785 
	C146.149673,181.999512 146.249771,181.650726 146.249771,181.650726 
z"/>
<path fill="#0A8446" opacity="1.000000" stroke="none" 
	d="
M263.290161,175.075272 
	C262.425415,176.770248 261.560669,178.465240 260.223358,181.086502 
	C262.877106,181.998169 265.648682,183.665070 268.483459,183.780518 
	C275.082458,184.049225 281.713165,183.399048 288.328583,183.448715 
	C293.689697,183.488953 296.696167,180.421295 299.453491,176.435333 
	C300.636505,174.725189 302.548218,173.519165 304.885681,172.056458 
	C318.147522,173.430176 330.652496,174.831528 343.157501,176.232880 
	C341.986755,181.832642 346.054230,184.333572 353.443329,183.843155 
	C360.637817,183.365646 366.713654,180.540314 373.380737,176.932098 
	C374.701874,176.851898 375.350525,176.920288 375.999176,176.988678 
	C375.999176,176.988678 375.997559,177.000137 376.053986,177.352875 
	C376.870300,178.140259 377.630219,178.574905 378.390137,179.009552 
	C378.599579,178.344147 378.809052,177.678741 379.018494,177.013321 
	C379.018494,177.013321 379.451569,176.768433 380.011810,176.889252 
	C381.332489,177.081909 382.092957,177.153748 382.853394,177.225586 
	C382.853394,177.225601 382.865875,177.633209 383.005005,178.205734 
	C387.003998,179.960648 390.863831,181.143036 394.723694,182.325439 
	C394.723694,182.325439 394.935760,181.984482 394.945312,182.517059 
	C398.105560,184.075012 401.332581,184.914703 404.388580,186.170578 
	C408.665955,187.928375 412.815826,189.996292 417.020264,191.931549 
	C417.646637,192.376160 418.273010,192.820770 419.373169,193.578384 
	C420.229645,193.940262 420.612366,193.989120 420.995056,194.037979 
	C420.995056,194.037979 421.228546,194.262527 421.588501,194.620071 
	C421.924774,195.947906 421.901062,196.918198 421.877350,197.888489 
	C421.877350,197.888489 421.965729,197.987061 421.604980,197.895737 
	C420.823120,197.937241 420.401978,198.070068 419.980835,198.202881 
	C418.918640,198.163483 417.856476,198.124084 416.010468,198.014648 
	C404.249207,198.237762 393.267456,198.884369 382.295166,198.751968 
	C357.984650,198.458633 333.680878,197.580963 309.370331,197.332336 
	C297.582489,197.211761 285.785583,197.971191 273.992798,198.332184 
	C272.627991,198.369049 271.263153,198.405899 269.255981,198.394592 
	C268.059601,198.478729 267.505554,198.611008 266.951508,198.743286 
	C266.202393,198.708481 265.453308,198.673660 263.917084,198.610687 
	C261.105957,198.659668 259.081909,198.736816 256.875122,198.639679 
	C256.116241,198.619278 255.540115,198.773148 254.527740,198.977661 
	C250.410965,199.244064 246.730453,199.459808 242.771652,199.477051 
	C240.984299,199.485825 239.475250,199.693115 237.544174,199.951874 
	C233.095627,200.287460 229.069092,200.571579 224.866211,200.673569 
	C224.117371,200.641495 223.544876,200.791565 222.547180,200.997284 
	C218.431671,201.280518 214.741348,201.508118 210.714569,201.516724 
	C206.909256,201.508881 203.440399,201.720032 199.612213,201.993439 
	C198.801880,202.218964 198.350845,202.382233 197.899811,202.545502 
	C197.468399,202.468796 197.036987,202.392090 196.082397,201.952393 
	C194.023300,201.629776 192.487366,201.670166 190.553345,201.715973 
	C187.452469,201.432129 184.749725,201.142868 181.941284,200.707764 
	C181.538651,200.647934 181.241669,200.733932 180.488373,200.840668 
	C176.360855,200.863770 172.689682,200.866119 169.018509,200.868469 
	C168.581833,200.796906 168.145157,200.725327 167.066711,200.483795 
	C164.915161,200.388214 163.405380,200.462570 161.895599,200.536926 
	C160.827393,200.439484 159.759201,200.342056 158.403656,200.210083 
	C158.116333,200.175522 158.041031,199.918335 157.878540,199.723541 
	C157.127853,199.616074 156.539658,199.703415 155.499634,199.803314 
	C145.716705,199.768936 136.385635,199.722000 126.752441,199.475189 
	C124.653793,199.554596 122.857269,199.833878 121.060745,200.113159 
	C121.060745,200.113159 121.069977,200.277924 120.681122,200.224167 
	C111.495987,200.266022 102.699699,200.361633 93.903412,200.457245 
	C93.500465,200.412781 93.097519,200.368317 91.942047,200.258545 
	C82.525925,199.956818 73.862328,199.720398 65.147598,199.189117 
	C65.011833,198.504288 64.927193,198.114334 64.842560,197.724380 
	C64.842560,197.724380 65.075821,197.414062 65.531128,197.299774 
	C67.306068,196.843262 68.625694,196.501022 70.067741,196.292648 
	C70.460846,196.279068 70.731522,196.131622 71.366959,195.847626 
	C76.491379,194.144180 81.251038,192.577301 86.010696,191.010422 
	C86.172379,190.960968 86.334061,190.911499 87.061363,190.928482 
	C87.791595,191.000427 87.976349,191.058212 88.117844,191.003693 
	C90.747604,189.990433 93.296402,188.486420 96.016098,188.054520 
	C99.866051,187.443115 103.864975,187.831818 107.755646,187.395508 
	C110.967834,187.035263 114.992622,187.729050 116.006294,183.027161 
	C116.458664,182.987335 116.911041,182.947525 117.997681,183.117950 
	C120.237946,183.513733 122.279137,184.426132 123.379547,183.767258 
	C130.715759,179.374680 138.305862,181.032562 145.924545,182.284073 
	C149.031586,187.406067 154.551956,186.635071 159.090744,186.861420 
	C169.958267,187.403412 180.365128,185.320953 189.236267,178.274765 
	C191.947159,176.121536 194.833023,174.188614 198.362411,172.037811 
	C201.663651,171.764984 204.246445,171.428284 206.817429,171.502136 
	C209.615875,171.582520 212.848419,173.092438 215.108063,172.133163 
	C220.773956,169.727859 225.922226,172.654205 231.288864,172.528946 
	C230.915466,173.440582 230.674667,174.438919 230.145340,175.248627 
	C228.028046,178.487442 229.293701,179.938080 232.713394,179.991943 
	C238.358765,180.080902 244.007843,180.036652 249.653900,179.951279 
	C254.693146,179.875092 256.225739,175.628174 259.178101,172.106613 
	C261.001434,172.972488 262.145782,174.023880 263.290161,175.075272 
z"/>
<path fill="#5B4A30" opacity="1.000000" stroke="none" 
	d="
M39.141487,231.029633 
	C39.086773,237.018906 38.690357,243.030655 39.082561,248.990509 
	C39.412258,254.000473 37.423622,255.567123 32.823811,254.945297 
	C31.841791,254.812561 30.576696,255.284088 29.883575,254.819077 
	C28.508444,253.896500 26.432192,252.539291 26.403391,251.320175 
	C26.136095,240.006332 26.282604,228.683426 26.212217,217.363739 
	C26.196096,214.771576 27.307140,213.965256 29.793091,213.812286 
	C35.991562,213.430847 41.295139,214.130920 45.521877,219.805878 
	C49.770748,225.510559 55.123989,230.396301 60.033417,235.603058 
	C61.365025,237.015305 62.841789,238.290695 64.251930,239.628906 
	C64.760559,239.514023 65.269180,239.399139 65.777809,239.284256 
	C65.777809,236.141159 65.778023,232.998047 65.777756,229.854950 
	C65.777420,225.859573 65.918411,221.857513 65.730354,217.870987 
	C65.585350,214.797119 66.793922,213.600433 69.804138,213.864471 
	C71.456032,214.009384 73.269012,213.497940 74.753952,214.015381 
	C76.086426,214.479706 78.037117,215.927109 78.058380,216.974457 
	C78.294861,228.622574 78.243980,240.277573 78.142555,251.929581 
	C78.134590,252.843765 77.389267,254.192169 76.608147,254.583725 
	C72.975082,256.404877 64.449936,254.387695 61.515297,251.251114 
	C55.262074,244.567627 48.997829,237.894455 42.321869,230.765991 
	C40.577381,228.979568 39.405476,228.248901 39.141487,231.029633 
z"/>
<path fill="#5B4B31" opacity="1.000000" stroke="none" 
	d="
M171.697113,239.662140 
	C171.281998,243.649750 171.037537,247.298523 171.136276,250.937988 
	C171.218948,253.985046 169.991272,255.001587 167.003860,254.942993 
	C155.940872,254.726089 157.692886,256.063751 157.609528,245.803940 
	C157.535233,236.659393 157.688889,227.512451 157.557175,218.369217 
	C157.513596,215.343887 158.126801,213.784851 161.635986,213.850113 
	C171.941635,214.041687 182.259125,213.738220 192.558075,214.065842 
	C195.937637,214.173340 199.537354,215.078232 202.580322,216.557022 
	C210.727173,220.516098 210.994583,228.869385 203.405869,233.721573 
	C202.721542,234.159119 202.039642,234.600494 200.475189,235.607437 
	C210.057419,239.179749 207.324234,247.582382 209.766006,254.855438 
	C205.815933,254.855438 202.662155,255.132538 199.600967,254.720947 
	C198.352371,254.553055 196.873627,253.100220 196.273407,251.858078 
	C195.507462,250.272934 195.430984,248.320038 195.222946,246.506638 
	C194.684799,241.815903 192.071686,239.178802 187.409622,239.064972 
	C182.283691,238.939804 177.147934,239.217239 171.697113,239.662140 
M171.073669,229.292206 
	C172.064209,230.302139 173.018356,232.136963 174.051453,232.182556 
	C179.159241,232.407974 184.298050,232.327515 189.405563,232.018539 
	C192.620224,231.824081 195.256714,230.345551 195.221512,226.557556 
	C195.186523,222.795471 192.502197,221.384811 189.334595,221.088669 
	C185.724182,220.751114 182.069214,220.828110 178.433746,220.832779 
	C169.855621,220.843781 171.157043,220.408646 171.073669,229.292206 
z"/>
<path fill="#5B4B32" opacity="1.000000" stroke="none" 
	d="
M135.526184,216.343506 
	C143.842422,220.495804 148.782806,226.561371 148.146545,235.853607 
	C147.521820,244.977539 141.652374,250.142990 133.614105,253.093903 
	C122.514503,257.168640 111.373901,256.988708 100.484573,252.319031 
	C92.872688,249.054810 87.963318,243.506302 87.824074,234.812851 
	C87.685585,226.166443 92.228325,220.236893 99.758408,216.776215 
	C111.394424,211.428497 123.295937,211.551865 135.526184,216.343506 
M101.955780,239.154007 
	C106.968506,248.852661 122.675850,251.631546 130.674789,244.182053 
	C134.235458,240.865997 135.525253,236.711121 134.560089,231.937042 
	C132.835281,223.405457 125.150978,219.203217 114.224113,220.759201 
	C104.422607,222.154938 99.865837,228.593201 101.955780,239.154007 
z"/>
<path fill="#5C4C33" opacity="1.000000" stroke="none" 
	d="
M319.046204,220.419556 
	C314.878754,221.693787 310.545044,222.142380 307.574341,224.391373 
	C299.734741,230.326370 302.205414,243.107437 311.502380,246.818466 
	C319.988861,250.205978 327.054810,247.603043 333.695038,241.086929 
	C336.192749,238.635910 341.706207,239.258057 346.324402,238.388931 
	C346.080994,244.826675 343.212463,248.084625 339.399261,250.684677 
	C328.735657,257.955750 308.033600,257.436859 297.623077,249.695724 
	C286.690765,241.566589 286.864319,226.689377 297.983917,218.765778 
	C308.465454,211.296844 328.204590,210.572220 338.851166,217.670792 
	C341.843475,219.665909 344.047516,222.843307 346.863312,225.735367 
	C340.612976,228.855072 335.653961,227.645935 331.341644,224.735229 
	C327.962311,222.454254 323.488617,221.794571 319.046204,220.419556 
z"/>
<path fill="#5B4B32" opacity="1.000000" stroke="none" 
	d="
M364.205109,229.070587 
	C365.824799,226.301941 367.444519,223.533310 369.401733,220.271393 
	C370.168091,218.855026 370.596985,217.931946 371.025848,217.008881 
	C375.581665,211.788010 386.109131,212.560410 389.494446,218.372177 
	C390.498535,220.096024 391.463593,221.842621 392.734009,224.117554 
	C393.646790,225.520493 394.272125,226.384659 394.897430,227.248810 
	C396.509979,230.322449 398.122528,233.396103 400.025757,237.049194 
	C401.147400,238.926697 401.978394,240.224747 402.809387,241.522812 
	C402.970428,241.951599 403.131439,242.380402 403.550476,243.259979 
	C404.497742,244.823486 405.186981,245.936172 405.876221,247.048874 
	C406.666473,248.601700 407.456726,250.154526 408.516235,252.228287 
	C408.900024,253.168869 409.014587,253.588516 409.129150,254.008148 
	C407.026123,254.332474 404.923065,254.656799 402.160461,254.976837 
	C401.334625,255.024811 401.168304,255.077057 401.002014,255.129318 
	C400.251343,255.081436 399.500702,255.033569 398.083435,254.927948 
	C396.987976,254.808121 396.559113,254.746033 396.130280,254.683945 
	C395.304443,253.233917 394.478607,251.783890 393.385986,249.855453 
	C392.722992,248.763229 392.326813,248.149414 391.930603,247.535614 
	C391.930603,247.535614 391.795258,247.215622 391.511566,246.856873 
	C390.482849,246.361801 389.737823,246.225494 388.992798,246.089203 
	C384.965546,246.008224 380.938293,245.927231 376.207336,245.848663 
	C375.335815,245.904800 375.167969,245.958511 375.000153,246.012222 
	C373.605316,245.953400 372.210480,245.894562 370.066681,245.905487 
	C368.472595,246.973831 367.627472,247.972427 366.782318,248.971039 
	C363.947571,257.043243 357.329193,254.815842 349.937622,254.763321 
	C354.256653,247.099335 358.163300,240.167130 362.397949,232.717392 
	C362.855713,231.793411 362.985474,231.386978 363.115234,230.980530 
	C363.115234,230.980530 363.257233,230.868927 363.530457,230.587814 
	C363.937500,229.894669 364.071289,229.482620 364.205109,229.070587 
M381.326019,239.086288 
	C383.072021,239.086288 384.818024,239.086288 387.891968,239.086288 
	C385.007660,233.656677 382.735229,229.378952 379.792358,223.839111 
	C376.747528,229.580124 374.500641,233.816635 371.697052,239.102768 
	C375.547974,239.102768 377.980194,239.102768 381.326019,239.086288 
z"/>
<path fill="#5F4F36" opacity="1.000000" stroke="none" 
	d="
M415.123138,249.013062 
	C415.190125,248.560471 415.257141,248.107864 415.348450,246.936127 
	C415.292755,245.147964 415.212738,244.078949 415.132690,243.009949 
	C415.198273,235.643234 415.263824,228.276505 415.345154,220.086823 
	C415.284485,218.513016 415.208069,217.762161 415.131653,217.011307 
	C416.177155,215.963562 417.222656,214.915833 419.037109,213.882874 
	C421.211395,213.822220 422.616669,213.746750 424.021973,213.671295 
	C425.459839,213.879364 426.897675,214.087433 428.977325,214.388367 
	C428.977325,224.034927 428.977325,233.550522 428.988403,243.915436 
	C430.332764,245.517410 431.666016,246.270096 432.999268,247.022781 
	C441.387146,247.257019 449.775024,247.491257 458.541382,248.287460 
	C459.061279,251.852554 459.690948,255.161224 454.987946,255.132980 
	C444.636810,255.074738 434.285706,255.016495 423.140015,254.942245 
	C421.893707,254.989578 421.441925,255.052933 420.990173,255.116272 
	C419.348511,254.815994 417.706818,254.515732 415.773376,253.616791 
	C415.362122,251.683090 415.242645,250.348083 415.123138,249.013062 
z"/>
<path fill="#AF2140" opacity="1.000000" stroke="none" 
	d="
M263.615906,247.201675 
	C264.375153,249.402756 264.979919,251.259689 265.989197,254.358643 
	C261.852661,251.691925 258.561462,249.882690 255.639725,247.600449 
	C252.597244,245.223907 250.097183,244.782272 246.909622,247.475952 
	C244.156235,249.802734 240.847443,251.472290 236.484665,254.263870 
	C237.624191,250.834457 238.283997,248.730591 239.020294,246.653839 
	C241.811127,238.782059 241.816940,238.790573 234.639435,234.030853 
	C232.604935,232.681702 230.597015,231.292435 228.772934,228.888855 
	C232.824127,228.888855 236.890350,228.673599 240.921860,228.955322 
	C244.295456,229.191071 246.153885,228.150543 247.052811,224.755585 
	C247.976028,221.268829 249.447891,217.927322 251.141479,213.245682 
	C252.985641,218.133591 254.540344,221.686142 255.645691,225.373398 
	C256.453430,228.067886 257.797119,229.103790 260.634125,228.956161 
	C264.948181,228.731689 269.282532,228.897446 275.212250,228.897446 
	C271.316254,231.540497 268.757629,233.774521 265.802704,235.168365 
	C260.927551,237.467987 260.167664,240.577377 262.794952,244.977173 
	C263.129242,245.536987 263.244659,246.227539 263.615906,247.201675 
z"/>
<path fill="#C5ECD9" opacity="1.000000" stroke="none" 
	d="
M274.326782,198.574478 
	C285.785583,197.971191 297.582489,197.211761 309.370331,197.332336 
	C333.680878,197.580963 357.984650,198.458633 382.295166,198.751968 
	C393.267456,198.884369 404.249207,198.237762 415.618195,198.090607 
	C415.413422,198.487305 414.824921,198.936081 414.219696,198.959824 
	C396.957062,199.637268 379.688568,200.890701 362.429596,200.775284 
	C333.170258,200.579620 303.916718,199.515701 274.326782,198.574478 
z"/>
<path fill="#C5ECD9" opacity="1.000000" stroke="none" 
	d="
M198.040161,202.858261 
	C198.350845,202.382233 198.801880,202.218964 200.069092,202.068756 
	C204.273849,201.966446 207.662445,201.851074 211.051025,201.735687 
	C214.741348,201.508118 218.431671,201.280518 222.892365,201.068344 
	C224.122681,201.007736 224.582611,200.931717 225.042557,200.855698 
	C229.069092,200.571579 233.095627,200.287460 237.965637,200.030579 
	C240.222717,199.930405 241.636337,199.802979 243.049942,199.675568 
	C246.730453,199.459808 250.410965,199.244064 254.878326,199.054764 
	C256.129425,198.992142 256.593658,198.903061 257.057892,198.813965 
	C259.081909,198.736816 261.105957,198.659668 263.550903,198.697754 
	C259.489380,199.518631 255.029755,200.573074 250.520477,200.867889 
	C233.517532,201.979492 216.498718,202.849045 199.483810,203.771683 
	C199.061462,203.794571 198.615463,203.381027 198.040161,202.858261 
z"/>
<path fill="#C5ECD9" opacity="1.000000" stroke="none" 
	d="
M115.616905,183.044434 
	C114.992622,187.729050 110.967834,187.035263 107.755646,187.395508 
	C103.864975,187.831818 99.866051,187.443115 96.016098,188.054520 
	C93.296402,188.486420 90.747604,189.990433 88.117844,191.003693 
	C87.976349,191.058212 87.791595,191.000427 87.302292,190.849258 
	C92.343796,186.408340 98.520706,185.007889 105.304321,184.961334 
	C108.616249,184.938614 111.920044,183.732285 115.616905,183.044434 
z"/>
<path fill="#C5ECD9" opacity="1.000000" stroke="none" 
	d="
M146.037109,182.141785 
	C138.305862,181.032562 130.715759,179.374680 123.379547,183.767258 
	C122.279137,184.426132 120.237946,183.513733 118.335938,183.076752 
	C127.146233,180.047638 136.238281,177.063492 146.025757,181.279938 
	C146.249771,181.650726 146.149673,181.999512 146.037109,182.141785 
z"/>
<path fill="#C5ECD9" opacity="1.000000" stroke="none" 
	d="
M127.054558,199.675079 
	C136.385635,199.722000 145.716705,199.768936 155.838470,199.915146 
	C157.099777,199.982391 157.570404,199.950363 158.041031,199.918335 
	C158.041031,199.918335 158.116333,200.175522 158.001572,200.244644 
	C152.627716,200.519302 147.370041,200.832413 142.109146,200.902313 
	C135.958191,200.984039 129.804413,200.853683 123.684128,200.488647 
	C124.829117,199.999664 125.941841,199.837372 127.054558,199.675079 
z"/>
<path fill="#C5ECD9" opacity="1.000000" stroke="none" 
	d="
M94.053108,200.794022 
	C102.699699,200.361633 111.495987,200.266022 120.722397,200.295609 
	C114.848999,201.208694 108.561996,202.247833 102.234024,202.664169 
	C99.601974,202.837341 96.882515,201.682022 94.053108,200.794022 
z"/>
<path fill="#C5ECD9" opacity="1.000000" stroke="none" 
	d="
M416.987366,191.587616 
	C412.815826,189.996292 408.665955,187.928375 404.388580,186.170578 
	C401.332581,184.914703 398.105560,184.075012 394.831787,182.683380 
	C403.150482,182.734589 410.864136,184.966354 416.987366,191.587616 
z"/>
<path fill="#C5ECD9" opacity="1.000000" stroke="none" 
	d="
M65.198730,199.483978 
	C73.862328,199.720398 82.525925,199.956818 91.645859,200.336090 
	C90.829613,200.955826 89.539597,201.884628 88.287277,201.836334 
	C80.121468,201.521271 71.963821,200.994339 64.212524,200.136444 
	C64.813942,199.652130 65.006340,199.568054 65.198730,199.483978 
z"/>
<path fill="#C5ECD9" opacity="1.000000" stroke="none" 
	d="
M169.281128,201.181732 
	C172.689682,200.866119 176.360855,200.863770 180.761871,200.918488 
	C181.676788,200.934891 181.861877,200.894241 182.046967,200.853592 
	C184.749725,201.142868 187.452469,201.432129 190.957642,201.834717 
	C192.860901,202.131958 193.961746,202.315857 195.062576,202.499756 
	C186.556290,202.164841 178.050018,201.829910 169.281128,201.181732 
z"/>
<path fill="#C5ECD9" opacity="1.000000" stroke="none" 
	d="
M69.945320,196.158783 
	C68.625694,196.501022 67.306068,196.843262 65.647568,197.144470 
	C65.558525,196.476990 65.697014,195.383743 66.074753,195.293640 
	C72.434700,193.776733 78.824463,192.384842 85.609154,190.987823 
	C81.251038,192.577301 76.491379,194.144180 71.091324,195.822479 
	C70.282394,196.008865 70.113861,196.083817 69.945320,196.158783 
z"/>
<path fill="#F8F5ED" opacity="1.000000" stroke="none" 
	d="
M455.067871,255.481506 
	C459.690948,255.161224 459.061279,251.852554 458.920044,248.429550 
	C459.675018,249.197937 460.817902,250.307983 461.077576,251.596069 
	C461.347473,252.934799 460.763489,254.445663 460.415802,256.816010 
	C458.869751,256.526642 457.008759,256.178345 455.067871,255.481506 
z"/>
<path fill="#C5ECD9" opacity="1.000000" stroke="none" 
	d="
M394.680450,181.952484 
	C390.863831,181.143036 387.003998,179.960648 383.116791,178.376251 
	C386.938690,179.176010 390.787964,180.377762 394.680450,181.952484 
z"/>
<path fill="#F8F5ED" opacity="1.000000" stroke="none" 
	d="
M414.746521,249.016403 
	C415.242645,250.348083 415.362122,251.683090 415.473755,253.421646 
	C413.653351,253.887299 411.840790,253.949417 409.578674,254.009827 
	C409.014587,253.588516 408.900024,253.168869 408.777039,252.422760 
	C410.635712,251.070770 412.502838,250.045258 414.746521,249.016403 
z"/>
<path fill="#F8F5ED" opacity="1.000000" stroke="none" 
	d="
M432.962067,246.673096 
	C431.666016,246.270096 430.332764,245.517410 429.079102,244.375488 
	C430.414093,244.765289 431.669495,245.544357 432.962067,246.673096 
z"/>
<path fill="#F8F5ED" opacity="1.000000" stroke="none" 
	d="
M423.929749,213.343567 
	C422.616669,213.746750 421.211395,213.822220 419.393311,213.798706 
	C420.599518,213.471786 422.218536,213.243820 423.929749,213.343567 
z"/>
<path fill="#F8F5ED" opacity="1.000000" stroke="none" 
	d="
M406.170227,246.818481 
	C405.186981,245.936172 404.497742,244.823486 403.751648,243.380035 
	C406.324280,242.893494 407.757721,243.673752 406.170227,246.818481 
z"/>
<path fill="#C5ECD9" opacity="1.000000" stroke="none" 
	d="
M162.033203,200.844635 
	C163.405380,200.462570 164.915161,200.388214 166.736389,200.526978 
	C165.422150,200.877502 163.796478,201.014923 162.033203,200.844635 
z"/>
<path fill="#F8F5ED" opacity="1.000000" stroke="none" 
	d="
M402.862976,241.106750 
	C401.978394,240.224747 401.147400,238.926697 400.260742,237.304855 
	C401.108887,238.217606 402.012726,239.454147 402.862976,241.106750 
z"/>
<path fill="#C5ECD9" opacity="1.000000" stroke="none" 
	d="
M376.027802,176.697479 
	C375.350525,176.920288 374.701874,176.851898 373.726868,176.778809 
	C373.471405,176.046616 373.542328,175.319107 373.746460,174.249359 
	C374.605255,174.740173 375.330841,175.573227 376.027802,176.697479 
z"/>
<path fill="#F8F5ED" opacity="1.000000" stroke="none" 
	d="
M367.166016,248.976685 
	C367.627472,247.972427 368.472595,246.973831 369.663086,246.024536 
	C369.188873,247.043335 368.369293,248.012833 367.166016,248.976685 
z"/>
<path fill="#C5ECD9" opacity="1.000000" stroke="none" 
	d="
M422.245575,197.886383 
	C421.901062,196.918198 421.924774,195.947906 421.750122,194.630341 
	C424.944458,194.587372 424.628265,195.985413 422.245575,197.886383 
z"/>
<path fill="#F8F5ED" opacity="1.000000" stroke="none" 
	d="
M414.772766,243.061630 
	C415.212738,244.078949 415.292755,245.147964 415.249756,246.603729 
	C412.219971,246.189484 412.221680,244.852951 414.772766,243.061630 
z"/>
<path fill="#F8F5ED" opacity="1.000000" stroke="none" 
	d="
M370.691711,217.035309 
	C370.596985,217.931946 370.168091,218.855026 369.465942,219.926392 
	C369.580994,219.070374 369.969269,218.066055 370.691711,217.035309 
z"/>
<path fill="#F8F5ED" opacity="1.000000" stroke="none" 
	d="
M414.783966,217.052734 
	C415.208069,217.762161 415.284485,218.513016 415.241852,219.626862 
	C412.802856,219.520401 412.340820,218.610458 414.783966,217.052734 
z"/>
<path fill="#519774" opacity="1.000000" stroke="none" 
	d="
M126.752441,199.475189 
	C125.941841,199.837372 124.829117,199.999664 123.314423,200.296234 
	C122.490623,200.405594 122.068787,200.380661 121.353851,200.234451 
	C122.857269,199.833878 124.653793,199.554596 126.752441,199.475189 
z"/>
<path fill="#C5ECD9" opacity="1.000000" stroke="none" 
	d="
M382.900909,176.894104 
	C382.092957,177.153748 381.332489,177.081909 380.247009,176.808289 
	C380.930817,176.591904 381.939606,176.577271 382.900909,176.894104 
z"/>
<path fill="#C5ECD9" opacity="1.000000" stroke="none" 
	d="
M378.642212,176.996552 
	C378.809052,177.678741 378.599579,178.344147 378.390137,179.009552 
	C377.630219,178.574905 376.870300,178.140259 376.059204,177.354309 
	C376.760620,176.995285 377.513245,176.987534 378.642212,176.996552 
z"/>
<path fill="#F8F5ED" opacity="1.000000" stroke="none" 
	d="
M394.930786,226.874420 
	C394.272125,226.384659 393.646790,225.520493 392.999115,224.332092 
	C393.639221,224.838577 394.301666,225.669296 394.930786,226.874420 
z"/>
<path fill="#EFE9DF" opacity="1.000000" stroke="none" 
	d="
M39.516411,231.022842 
	C39.405476,228.248901 40.577381,228.979568 42.022522,230.624512 
	C41.390045,230.961426 40.640690,230.988739 39.516411,231.022842 
z"/>
<path fill="#519774" opacity="1.000000" stroke="none" 
	d="
M195.305298,202.453934 
	C193.961746,202.315857 192.860901,202.131958 191.355759,201.829300 
	C192.487366,201.670166 194.023300,201.629776 195.763458,201.868439 
	C195.967712,202.147461 195.548035,202.408112 195.305298,202.453934 
z"/>
<path fill="#C5ECD9" opacity="1.000000" stroke="none" 
	d="
M267.051514,198.983551 
	C267.505554,198.611008 268.059601,198.478729 268.863831,198.514496 
	C268.459869,198.862961 267.805695,199.043381 267.051514,198.983551 
z"/>
<path fill="#F8F5ED" opacity="1.000000" stroke="none" 
	d="
M421.033264,255.403290 
	C421.441925,255.052933 421.893707,254.989578 422.677734,255.020447 
	C422.688477,255.608398 422.366943,256.102173 422.045410,256.595947 
	C421.722382,256.294067 421.399353,255.992172 421.033264,255.403290 
z"/>
<path fill="#F8F5ED" opacity="1.000000" stroke="none" 
	d="
M396.117920,254.996246 
	C396.559113,254.746033 396.987976,254.808121 397.713287,255.007629 
	C397.709473,255.625107 397.409210,256.105133 397.108917,256.585175 
	C396.774475,256.159637 396.440002,255.734100 396.117920,254.996246 
z"/>
<path fill="#F8F5ED" opacity="1.000000" stroke="none" 
	d="
M391.701782,247.840698 
	C392.326813,248.149414 392.722992,248.763229 393.129028,249.660889 
	C392.583618,249.345093 392.028290,248.745438 391.701782,247.840698 
z"/>
<path fill="#F8F5ED" opacity="1.000000" stroke="none" 
	d="
M389.073578,246.448517 
	C389.737823,246.225494 390.482849,246.361801 391.371094,246.754639 
	C390.727692,246.943390 389.941010,246.875610 389.073578,246.448517 
z"/>
<path fill="#519774" opacity="1.000000" stroke="none" 
	d="
M65.147598,199.189117 
	C65.006340,199.568054 64.813942,199.652130 64.333374,199.862732 
	C64.079247,199.208313 64.113289,198.427353 64.494949,197.685394 
	C64.927193,198.114334 65.011833,198.504288 65.147598,199.189117 
z"/>
<path fill="#C5ECD9" opacity="1.000000" stroke="none" 
	d="
M420.150757,198.412292 
	C420.401978,198.070068 420.823120,197.937241 421.578857,197.834930 
	C421.382507,198.117538 420.851593,198.369614 420.150757,198.412292 
z"/>
<path fill="#F8F5ED" opacity="1.000000" stroke="none" 
	d="
M375.084625,246.181000 
	C375.167969,245.958511 375.335815,245.904800 375.751984,245.941681 
	C375.723236,246.138107 375.446167,246.243942 375.084625,246.181000 
z"/>
<path fill="#C5ECD9" opacity="1.000000" stroke="none" 
	d="
M420.817200,193.780823 
	C420.612366,193.989120 420.229645,193.940262 419.650696,193.667786 
	C419.849396,193.470673 420.244385,193.497162 420.817200,193.780823 
z"/>
<path fill="#F8F5ED" opacity="1.000000" stroke="none" 
	d="
M362.841736,231.166000 
	C362.985474,231.386978 362.855713,231.793411 362.463562,232.394196 
	C362.323547,232.176178 362.445862,231.763824 362.841736,231.166000 
z"/>
<path fill="#F8F5ED" opacity="1.000000" stroke="none" 
	d="
M401.092987,255.281708 
	C401.168304,255.077057 401.334625,255.024811 401.748993,255.055267 
	C401.726044,255.236694 401.454987,255.335388 401.092987,255.281708 
z"/>
<path fill="#F8F5ED" opacity="1.000000" stroke="none" 
	d="
M363.909637,229.240479 
	C364.071289,229.482620 363.937500,229.894669 363.532288,230.497528 
	C363.378693,230.262360 363.496429,229.836365 363.909637,229.240479 
z"/>
<path fill="#F8F7F3" opacity="1.000000" stroke="none" 
	d="
M263.729858,175.082489 
	C262.145782,174.023880 261.001434,172.972488 259.485199,171.933014 
	C266.104492,162.517746 256.762878,155.699188 255.000870,147.479828 
	C262.877960,147.479828 270.524872,147.479828 277.711792,147.479828 
	C278.354065,155.410110 278.876892,163.102280 279.649536,170.769272 
	C279.939880,173.650360 278.841248,174.822403 276.141022,174.875549 
	C272.150665,174.954086 268.160065,175.018997 263.729858,175.082489 
z"/>
<path fill="#EFF5EE" opacity="1.000000" stroke="none" 
	d="
M343.565186,176.151367 
	C330.652496,174.831528 318.147522,173.430176 305.212036,171.986313 
	C308.665283,168.524063 312.396729,164.907211 316.483734,161.750687 
	C319.439056,159.468201 322.866547,157.797073 326.546234,155.573685 
	C331.704437,169.603073 346.065521,166.852722 356.453186,171.386520 
	C356.402771,172.165619 356.352356,172.944702 356.301941,173.723785 
	C352.192261,174.505814 348.082581,175.287842 343.565186,176.151367 
z"/>
<path fill="#F2F7F1" opacity="1.000000" stroke="none" 
	d="
M231.675720,172.557510 
	C225.922226,172.654205 220.773956,169.727859 215.108063,172.133163 
	C212.848419,173.092438 209.615875,171.582520 206.817429,171.502136 
	C204.246445,171.428284 201.663651,171.764984 198.686783,171.887680 
	C206.163116,165.173584 214.038727,158.492615 221.968399,151.765778 
	C228.462128,157.295059 235.637405,163.404648 244.024216,170.545837 
	C238.967026,171.408417 235.514816,171.997253 231.675720,172.557510 
z"/>
<path fill="#519774" opacity="1.000000" stroke="none" 
	d="
M210.714569,201.516708 
	C207.662445,201.851074 204.273849,201.966446 200.428406,202.006500 
	C203.440399,201.720032 206.909256,201.508881 210.714569,201.516708 
z"/>
<path fill="#519774" opacity="1.000000" stroke="none" 
	d="
M242.771652,199.477051 
	C241.636337,199.802979 240.222717,199.930405 238.387650,199.979126 
	C239.475250,199.693115 240.984299,199.485825 242.771652,199.477051 
z"/>
<path fill="#519774" opacity="1.000000" stroke="none" 
	d="
M224.866211,200.673569 
	C224.582611,200.931717 224.122681,201.007736 223.317566,201.012695 
	C223.544876,200.791565 224.117371,200.641495 224.866211,200.673569 
z"/>
<path fill="#519774" opacity="1.000000" stroke="none" 
	d="
M157.878540,199.723541 
	C157.570404,199.950363 157.099777,199.982391 156.290314,199.902588 
	C156.539658,199.703415 157.127853,199.616074 157.878540,199.723541 
z"/>
<path fill="#519774" opacity="1.000000" stroke="none" 
	d="
M256.875122,198.639679 
	C256.593658,198.903061 256.129425,198.992142 255.314590,199.004120 
	C255.540115,198.773148 256.116241,198.619278 256.875122,198.639679 
z"/>
<path fill="#519774" opacity="1.000000" stroke="none" 
	d="
M181.941284,200.707764 
	C181.861877,200.894241 181.676788,200.934891 181.218201,200.897736 
	C181.241669,200.733932 181.538651,200.647934 181.941284,200.707764 
z"/>
<path fill="#519774" opacity="1.000000" stroke="none" 
	d="
M70.067741,196.292648 
	C70.113861,196.083817 70.282394,196.008865 70.726570,195.959045 
	C70.731522,196.131622 70.460846,196.279068 70.067741,196.292648 
z"/>
<path fill="#FAF8F3" opacity="1.000000" stroke="none" 
	d="
M171.074066,228.827576 
	C171.157043,220.408646 169.855621,220.843781 178.433746,220.832779 
	C182.069214,220.828110 185.724182,220.751114 189.334595,221.088669 
	C192.502197,221.384811 195.186523,222.795471 195.221512,226.557556 
	C195.256714,230.345551 192.620224,231.824081 189.405563,232.018539 
	C184.298050,232.327515 179.159241,232.407974 174.051453,232.182556 
	C173.018356,232.136963 172.064209,230.302139 171.074066,228.827576 
z"/>
<path fill="#FBF9F6" opacity="1.000000" stroke="none" 
	d="
M101.847237,238.776917 
	C99.865837,228.593201 104.422607,222.154938 114.224113,220.759201 
	C125.150978,219.203217 132.835281,223.405457 134.560089,231.937042 
	C135.525253,236.711121 134.235458,240.865997 130.674789,244.182053 
	C122.675850,251.631546 106.968506,248.852661 101.847237,238.776917 
z"/>
<path fill="#F4F0E9" opacity="1.000000" stroke="none" 
	d="
M380.869202,239.094528 
	C377.980194,239.102768 375.547974,239.102768 371.697052,239.102768 
	C374.500641,233.816635 376.747528,229.580124 379.792358,223.839111 
	C382.735229,229.378952 385.007660,233.656677 387.891968,239.086288 
	C384.818024,239.086288 383.072021,239.086288 380.869202,239.094528 
z"/>
</svg>